<?xml version="1.0" encoding="UTF-8"?>
<svg width="330px" height="220px" viewBox="0 0 330 220" version="1.1" xmlns="http://www.w3.org/2000/svg" xmlns:xlink="http://www.w3.org/1999/xlink">
    <title>placeholder2</title>
    <g id="Maquettes" stroke="none" stroke-width="1" fill="none" fill-rule="evenodd">
        <g id="GOS---Components" transform="translate(-740.000000, -1619.000000)">
            <g id="placeholder2" transform="translate(740.000000, 1619.000000)">
                <g id="Group-2-Copy" opacity="0.100000001" transform="translate(82.500000, 110.000000) rotate(-180.000000) translate(-82.500000, -110.000000) translate(0.000000, 0.000000)">
                    <rect id="Rectangle" fill="#24EDFC" x="115" y="17" width="17" height="17"></rect>
                    <rect id="Rectangle-Copy-2" fill="#24EDFC" x="16" y="17" width="17" height="17"></rect>
                    <rect id="Rectangle-Copy-4" fill="#24EDFC" x="16" y="0" width="17" height="17"></rect>
                    <rect id="Rectangle-Copy-24" fill="#24EDFC" x="115" y="34" width="17" height="17"></rect>
                    <rect id="Rectangle-Copy-41" fill="#24EDFC" x="148" y="51" width="17" height="17"></rect>
                    <rect id="Rectangle-Copy-51" fill="#24EDFC" x="148" y="85" width="17" height="17"></rect>
                    <rect id="Rectangle-Copy-52" fill="#24EDFC" x="132" y="102" width="17" height="17"></rect>
                    <rect id="Rectangle-Copy-53" fill="#24EDFC" x="132" y="118" width="17" height="17"></rect>
                    <rect id="Rectangle-Copy-185" fill="#24EDFC" x="148" y="203" width="17" height="17"></rect>
                    <rect id="Rectangle-Copy-54" fill="#FDEE05" x="132" y="135" width="17" height="17"></rect>
                    <rect id="Rectangle-Copy-181" fill="#FDEE05" x="148" y="169" width="17" height="17"></rect>
                    <rect id="Rectangle-Copy-110" fill="#24EDFC" x="132" y="169" width="17" height="17"></rect>
                    <rect id="Rectangle-Copy-111" fill="#24EDFC" x="98" y="186" width="17" height="17"></rect>
                    <rect id="Rectangle-Copy-112" fill="#24EDFC" x="98" y="203" width="17" height="17"></rect>
                    <rect id="Rectangle-Copy-25" fill="#EA4D8C" x="132" y="34" width="17" height="17"></rect>
                    <rect id="Rectangle-Copy-40" fill="#EA4D8C" x="132" y="51" width="17" height="17"></rect>
                    <rect id="Rectangle-Copy-48" fill="#EA4D8C" x="115" y="68" width="17" height="17"></rect>
                    <rect id="Rectangle-Copy-72" fill="#EA4D8C" x="132" y="85" width="17" height="17"></rect>
                    <rect id="Rectangle-Copy-73" fill="#EA4D8C" x="98" y="85" width="17" height="17"></rect>
                    <rect id="Rectangle-Copy-11" fill="#FFFFFF" x="33" y="17" width="17" height="17"></rect>
                    <rect id="Rectangle-Copy-163" fill="#FFFFFF" x="0" y="0" width="17" height="17"></rect>
                    <rect id="Rectangle-Copy-34" fill="#FFFFFF" x="50" y="51" width="17" height="17"></rect>
                    <rect id="Rectangle-Copy-46" fill="#FFFFFF" x="66" y="68" width="17" height="17"></rect>
                    <rect id="Rectangle-Copy-55" fill="#FFFFFF" x="66" y="85" width="17" height="17"></rect>
                    <rect id="Rectangle-Copy-44" fill="#FFFFFF" x="0" y="68" width="17" height="17"></rect>
                    <rect id="Rectangle-Copy-60" fill="#FFFFFF" x="0" y="85" width="17" height="17"></rect>
                    <rect id="Rectangle-Copy-62" fill="#FFFFFF" x="16" y="102" width="17" height="17"></rect>
                    <rect id="Rectangle-Copy-63" fill="#FFFFFF" x="33" y="102" width="17" height="17"></rect>
                    <rect id="Rectangle-Copy-64" fill="#FFFFFF" x="66" y="102" width="17" height="17"></rect>
                    <rect id="Rectangle-Copy-67" fill="#FFFFFF" x="66" y="118" width="17" height="17"></rect>
                    <rect id="Rectangle-Copy-78" fill="#FFFFFF" x="115" y="118" width="17" height="17"></rect>
                    <rect id="Rectangle-Copy-79" fill="#FFFFFF" x="115" y="135" width="17" height="17"></rect>
                    <rect id="Rectangle-Copy-68" fill="#FFFFFF" x="50" y="118" width="17" height="17"></rect>
                    <rect id="Rectangle-Copy-83" fill="#FFFFFF" x="50" y="135" width="17" height="17"></rect>
                    <rect id="Rectangle-Copy-84" fill="#FFFFFF" x="33" y="135" width="17" height="17"></rect>
                    <rect id="Rectangle-Copy-92" fill="#FFFFFF" x="50" y="186" width="17" height="17"></rect>
                    <rect id="Rectangle-Copy-188" fill="#FFFFFF" x="115" y="203" width="17" height="17"></rect>
                    <rect id="Rectangle-Copy-87" fill="#FFFFFF" x="0" y="118" width="17" height="17"></rect>
                    <rect id="Rectangle-Copy-85" fill="#FFFFFF" x="33" y="152" width="17" height="17"></rect>
                    <rect id="Rectangle-Copy-192" fill="#FFFFFF" x="0" y="203" width="17" height="17"></rect>
                    <rect id="Rectangle-Copy-93" fill="#FFFFFF" x="50" y="203" width="17" height="17"></rect>
                    <rect id="Rectangle-Copy-113" fill="#FFFFFF" x="82" y="203" width="17" height="17"></rect>
                    <rect id="Rectangle-Copy-183" fill="#FFFFFF" x="148" y="152" width="17" height="17"></rect>
                    <rect id="Rectangle-Copy-12" fill="#FFFFFF" x="50" y="17" width="17" height="17"></rect>
                    <rect id="Rectangle-Copy-16" fill="#121212" x="50" y="0" width="17" height="17"></rect>
                    <rect id="Rectangle-Copy-167" fill="#121212" x="0" y="34" width="17" height="17"></rect>
                    <rect id="Rectangle-Copy-169" fill="#121212" x="0" y="51" width="17" height="17"></rect>
                    <rect id="Rectangle-Copy-13" fill="#FF7939" x="66" y="17" width="17" height="17"></rect>
                    <rect id="Rectangle-Copy-27" fill="#FF7939" x="66" y="34" width="17" height="17"></rect>
                    <rect id="Rectangle-Copy-32" fill="#FF7939" x="16" y="51" width="17" height="17"></rect>
                    <rect id="Rectangle-Copy-88" fill="#FF7939" x="16" y="152" width="17" height="17"></rect>
                    <rect id="Rectangle-Copy-98" fill="#FF7939" x="66" y="152" width="17" height="17"></rect>
                    <rect id="Rectangle-Copy-99" fill="#FF7939" x="82" y="152" width="17" height="17"></rect>
                    <rect id="Rectangle-Copy-89" fill="#FF7939" x="16" y="169" width="17" height="17"></rect>
                    <rect id="Rectangle-Copy-190" fill="#FF7939" x="33" y="203" width="17" height="17"></rect>
                    <rect id="Rectangle-Copy-189" fill="#FF7939" x="148" y="186" width="17" height="17"></rect>
                    <rect id="Rectangle-Copy-42" fill="#844AE0" x="16" y="68" width="17" height="17"></rect>
                    <rect id="Rectangle-Copy-171" fill="#844AE0" x="115" y="0" width="17" height="17"></rect>
                    <rect id="Rectangle-Copy-173" fill="#844AE0" x="132" y="0" width="17" height="17"></rect>
                    <rect id="Rectangle-Copy-175" fill="#844AE0" x="148" y="34" width="17" height="17"></rect>
                    <rect id="Rectangle-Copy-29" fill="#FDEE05" x="50" y="34" width="17" height="17"></rect>
                    <rect id="Rectangle-Copy-35" fill="#FDEE05" x="82" y="51" width="17" height="17"></rect>
                    <rect id="Rectangle-Copy-38" fill="#FDEE05" x="82" y="68" width="17" height="17"></rect>
                    <rect id="Rectangle-Copy-179" fill="#FDEE05" x="148" y="0" width="17" height="17"></rect>
                    <rect id="Rectangle-Copy-179" fill="#FDEE05" x="148" y="17" width="17" height="17"></rect>
                    <rect id="Rectangle-Copy-37" fill="#FDEE05" x="98" y="51" width="17" height="17"></rect>
                    <rect id="Rectangle-Copy-30" fill="#FDEE05" x="33" y="34" width="17" height="17"></rect>
                    <rect id="Rectangle-Copy-59" fill="#FDEE05" x="16" y="85" width="17" height="17"></rect>
                    <rect id="Rectangle-Copy-65" fill="#FDEE05" x="16" y="118" width="17" height="17"></rect>
                    <rect id="Rectangle-Copy-90" fill="#FDEE05" x="33" y="169" width="17" height="17"></rect>
                    <rect id="Rectangle-Copy-97" fill="#FDEE05" x="50" y="152" width="17" height="17"></rect>
                    <rect id="Rectangle-Copy-94" fill="#FDEE05" x="66" y="186" width="17" height="17"></rect>
                    <rect id="Rectangle-Copy-109" fill="#FDEE05" x="115" y="169" width="17" height="17"></rect>
                    <rect id="Rectangle-Copy-91" fill="#FDEE05" x="33" y="186" width="17" height="17"></rect>
                    <rect id="Rectangle-Copy-95" fill="#FDEE05" x="66" y="203" width="17" height="17"></rect>
                    <rect id="Rectangle-Copy-66" fill="#FDEE05" x="33" y="118" width="17" height="17"></rect>
                    <rect id="Rectangle-Copy-36" fill="#FDEE05" x="66" y="51" width="17" height="17"></rect>
                    <rect id="Rectangle-Copy-28" fill="#FF7939" x="82" y="34" width="17" height="17"></rect>
                    <rect id="Rectangle-Copy-33" fill="#FF7939" x="33" y="51" width="17" height="17"></rect>
                    <rect id="Rectangle-Copy-161" fill="#FF7939" x="0" y="17" width="17" height="17"></rect>
                    <rect id="Rectangle-Copy-43" fill="#844AE0" x="33" y="68" width="17" height="17"></rect>
                    <rect id="Rectangle-Copy-74" fill="#844AE0" x="82" y="85" width="17" height="17"></rect>
                    <rect id="Rectangle-Copy-75" fill="#844AE0" x="82" y="102" width="17" height="17"></rect>
                    <rect id="Rectangle-Copy-77" fill="#844AE0" x="98" y="118" width="17" height="17"></rect>
                    <rect id="Rectangle-Copy-81" fill="#844AE0" x="82" y="135" width="17" height="17"></rect>
                    <rect id="Rectangle-Copy-195" fill="#844AE0" x="0" y="135" width="17" height="17"></rect>
                    <rect id="Rectangle-Copy-196" fill="#844AE0" x="0" y="186" width="17" height="17"></rect>
                    <rect id="Rectangle-Copy-197" fill="#844AE0" x="16" y="203" width="17" height="17"></rect>
                    <rect id="Rectangle-Copy-82" fill="#844AE0" x="66" y="135" width="17" height="17"></rect>
                    <rect id="Rectangle-Copy-105" fill="#844AE0" x="66" y="169" width="17" height="17"></rect>
                    <rect id="Rectangle-Copy-47" fill="#844AE0" x="98" y="68" width="17" height="17"></rect>
                    <rect id="Rectangle-Copy-49" fill="#844AE0" x="132" y="68" width="17" height="17"></rect>
                    <rect id="Rectangle-Copy-103" fill="#844AE0" x="148" y="102" width="17" height="17"></rect>
                    <rect id="Rectangle-Copy-104" fill="#844AE0" x="148" y="118" width="17" height="17"></rect>
                    <rect id="Rectangle-Copy-17" fill="#121212" x="66" y="0" width="17" height="17"></rect>
                    <rect id="Rectangle-Copy-14" fill="#FFFFFF" x="82" y="17" width="17" height="17"></rect>
                    <rect id="Rectangle-Copy-18" fill="#EA4D8C" x="82" y="0" width="17" height="17"></rect>
                    <rect id="Rectangle-Copy-31" fill="#EA4D8C" x="16" y="34" width="17" height="17"></rect>
                    <rect id="Rectangle-Copy-165" fill="#EA4D8C" x="33" y="0" width="17" height="17"></rect>
                    <rect id="Rectangle-Copy-45" fill="#EA4D8C" x="50" y="68" width="17" height="17"></rect>
                    <rect id="Rectangle-Copy-76" fill="#EA4D8C" x="82" y="118" width="17" height="17"></rect>
                    <rect id="Rectangle-Copy-100" fill="#EA4D8C" x="98" y="152" width="17" height="17"></rect>
                    <rect id="Rectangle-Copy-106" fill="#EA4D8C" x="82" y="169" width="17" height="17"></rect>
                    <rect id="Rectangle-Copy-102" fill="#EA4D8C" x="132" y="152" width="17" height="17"></rect>
                    <rect id="Rectangle-Copy-186" fill="#EA4D8C" x="132" y="203" width="17" height="17"></rect>
                    <rect id="Rectangle-Copy-187" fill="#EA4D8C" x="132" y="186" width="17" height="17"></rect>
                    <rect id="Rectangle-Copy-193" fill="#EA4D8C" x="0" y="169" width="17" height="17"></rect>
                    <rect id="Rectangle-Copy-194" fill="#EA4D8C" x="0" y="152" width="17" height="17"></rect>
                    <rect id="Rectangle-Copy-15" fill="#121212" x="98" y="17" width="17" height="17"></rect>
                    <rect id="Rectangle-Copy-177" fill="#121212" x="132" y="17" width="17" height="17"></rect>
                    <rect id="Rectangle-Copy-56" fill="#121212" x="50" y="85" width="17" height="17"></rect>
                    <polygon id="Rectangle-Copy-69" fill="#121212" transform="translate(123.500000, 110.500000) rotate(-270.000000) translate(-123.500000, -110.500000) " points="115 102 132 102 132 119 115 119"></polygon>
                    <polygon id="Rectangle-Copy-80" fill="#24EDFC" transform="translate(106.500000, 143.500000) rotate(-270.000000) translate(-106.500000, -143.500000) " points="98 135 115 135 115 152 98 152"></polygon>
                    <polygon id="Rectangle-Copy-101" fill="#121212" transform="translate(123.500000, 160.500000) rotate(-270.000000) translate(-123.500000, -160.500000) " points="115 152 132 152 132 169 115 169"></polygon>
                    <polygon id="Rectangle-Copy-116" fill="#121212" transform="translate(123.500000, 194.500000) rotate(-270.000000) translate(-123.500000, -194.500000) " points="115 186 132 186 132 203 115 203"></polygon>
                    <polygon id="Rectangle-Copy-107" fill="#121212" transform="translate(106.500000, 177.500000) rotate(-270.000000) translate(-106.500000, -177.500000) " points="98 169 115 169 115 186 98 186"></polygon>
                    <polygon id="Rectangle-Copy-108" fill="#121212" transform="translate(90.500000, 194.500000) rotate(-270.000000) translate(-90.500000, -194.500000) " points="82 186 99 186 99 203 82 203"></polygon>
                    <polygon id="Rectangle-Copy-191" fill="#121212" transform="translate(24.500000, 194.500000) rotate(-270.000000) translate(-24.500000, -194.500000) " points="16 186 33 186 33 203 16 203"></polygon>
                    <polygon id="Rectangle-Copy-184" fill="#121212" transform="translate(156.500000, 143.500000) rotate(-270.000000) translate(-156.500000, -143.500000) " points="148 135 165 135 165 152 148 152"></polygon>
                    <polygon id="Rectangle-Copy-96" fill="#121212" transform="translate(58.500000, 177.500000) rotate(-270.000000) translate(-58.500000, -177.500000) " points="50 169 67 169 67 186 50 186"></polygon>
                    <rect id="Rectangle-Copy-61" fill="#121212" x="0" y="102" width="17" height="17"></rect>
                    <rect id="Rectangle-Copy-86" fill="#121212" x="16" y="135" width="17" height="17"></rect>
                    <rect id="Rectangle-Copy-58" fill="#121212" x="33" y="85" width="17" height="17"></rect>
                    <polygon id="Rectangle-Copy-70" fill="#121212" transform="translate(123.500000, 93.500000) rotate(-270.000000) translate(-123.500000, -93.500000) " points="115 85 132 85 132 102 115 102"></polygon>
                    <rect id="Rectangle-Copy-26" fill="#121212" x="98" y="34" width="17" height="17"></rect>
                    <rect id="Rectangle-Copy-57" fill="#121212" x="50" y="102" width="17" height="17"></rect>
                    <polygon id="Rectangle-Copy-71" fill="#121212" transform="translate(106.500000, 110.500000) rotate(-270.000000) translate(-106.500000, -110.500000) " points="98 102 115 102 115 119 98 119"></polygon>
                    <rect id="Rectangle-Copy-39" fill="#121212" x="115" y="51" width="17" height="17"></rect>
                    <rect id="Rectangle-Copy-50" fill="#121212" x="148" y="68" width="17" height="17"></rect>
                    <rect id="Rectangle-Copy-20" fill="#EA4D8C" x="98" y="0" width="17" height="17"></rect>
                </g>
                <g id="Group-2-Copy-2" opacity="0.100000001" transform="translate(247.500000, 110.000000) rotate(-180.000000) translate(-247.500000, -110.000000) translate(165.000000, 0.000000)">
                    <rect id="Rectangle" fill="#24EDFC" x="115" y="17" width="17" height="17"></rect>
                    <rect id="Rectangle-Copy-2" fill="#24EDFC" x="16" y="17" width="17" height="17"></rect>
                    <rect id="Rectangle-Copy-4" fill="#24EDFC" x="16" y="0" width="17" height="17"></rect>
                    <rect id="Rectangle-Copy-24" fill="#24EDFC" x="115" y="34" width="17" height="17"></rect>
                    <rect id="Rectangle-Copy-41" fill="#24EDFC" x="148" y="51" width="17" height="17"></rect>
                    <rect id="Rectangle-Copy-51" fill="#24EDFC" x="148" y="85" width="17" height="17"></rect>
                    <rect id="Rectangle-Copy-52" fill="#24EDFC" x="132" y="102" width="17" height="17"></rect>
                    <rect id="Rectangle-Copy-53" fill="#24EDFC" x="132" y="118" width="17" height="17"></rect>
                    <rect id="Rectangle-Copy-185" fill="#24EDFC" x="148" y="203" width="17" height="17"></rect>
                    <rect id="Rectangle-Copy-54" fill="#FDEE05" x="132" y="135" width="17" height="17"></rect>
                    <rect id="Rectangle-Copy-181" fill="#FDEE05" x="148" y="169" width="17" height="17"></rect>
                    <rect id="Rectangle-Copy-110" fill="#24EDFC" x="132" y="169" width="17" height="17"></rect>
                    <rect id="Rectangle-Copy-111" fill="#24EDFC" x="98" y="186" width="17" height="17"></rect>
                    <rect id="Rectangle-Copy-112" fill="#24EDFC" x="98" y="203" width="17" height="17"></rect>
                    <rect id="Rectangle-Copy-25" fill="#EA4D8C" x="132" y="34" width="17" height="17"></rect>
                    <rect id="Rectangle-Copy-40" fill="#EA4D8C" x="132" y="51" width="17" height="17"></rect>
                    <rect id="Rectangle-Copy-48" fill="#EA4D8C" x="115" y="68" width="17" height="17"></rect>
                    <rect id="Rectangle-Copy-72" fill="#EA4D8C" x="132" y="85" width="17" height="17"></rect>
                    <rect id="Rectangle-Copy-73" fill="#EA4D8C" x="98" y="85" width="17" height="17"></rect>
                    <rect id="Rectangle-Copy-11" fill="#FFFFFF" x="33" y="17" width="17" height="17"></rect>
                    <rect id="Rectangle-Copy-163" fill="#FFFFFF" x="0" y="0" width="17" height="17"></rect>
                    <rect id="Rectangle-Copy-34" fill="#FFFFFF" x="50" y="51" width="17" height="17"></rect>
                    <rect id="Rectangle-Copy-46" fill="#FFFFFF" x="66" y="68" width="17" height="17"></rect>
                    <rect id="Rectangle-Copy-55" fill="#FFFFFF" x="66" y="85" width="17" height="17"></rect>
                    <rect id="Rectangle-Copy-44" fill="#FFFFFF" x="0" y="68" width="17" height="17"></rect>
                    <rect id="Rectangle-Copy-60" fill="#FFFFFF" x="0" y="85" width="17" height="17"></rect>
                    <rect id="Rectangle-Copy-62" fill="#FFFFFF" x="16" y="102" width="17" height="17"></rect>
                    <rect id="Rectangle-Copy-63" fill="#FFFFFF" x="33" y="102" width="17" height="17"></rect>
                    <rect id="Rectangle-Copy-64" fill="#FFFFFF" x="66" y="102" width="17" height="17"></rect>
                    <rect id="Rectangle-Copy-67" fill="#FFFFFF" x="66" y="118" width="17" height="17"></rect>
                    <rect id="Rectangle-Copy-78" fill="#FFFFFF" x="115" y="118" width="17" height="17"></rect>
                    <rect id="Rectangle-Copy-79" fill="#FFFFFF" x="115" y="135" width="17" height="17"></rect>
                    <rect id="Rectangle-Copy-68" fill="#FFFFFF" x="50" y="118" width="17" height="17"></rect>
                    <rect id="Rectangle-Copy-83" fill="#FFFFFF" x="50" y="135" width="17" height="17"></rect>
                    <rect id="Rectangle-Copy-84" fill="#FFFFFF" x="33" y="135" width="17" height="17"></rect>
                    <rect id="Rectangle-Copy-92" fill="#FFFFFF" x="50" y="186" width="17" height="17"></rect>
                    <rect id="Rectangle-Copy-188" fill="#FFFFFF" x="115" y="203" width="17" height="17"></rect>
                    <rect id="Rectangle-Copy-87" fill="#FFFFFF" x="0" y="118" width="17" height="17"></rect>
                    <rect id="Rectangle-Copy-85" fill="#FFFFFF" x="33" y="152" width="17" height="17"></rect>
                    <rect id="Rectangle-Copy-192" fill="#FFFFFF" x="0" y="203" width="17" height="17"></rect>
                    <rect id="Rectangle-Copy-93" fill="#FFFFFF" x="50" y="203" width="17" height="17"></rect>
                    <rect id="Rectangle-Copy-113" fill="#FFFFFF" x="82" y="203" width="17" height="17"></rect>
                    <rect id="Rectangle-Copy-183" fill="#FFFFFF" x="148" y="152" width="17" height="17"></rect>
                    <rect id="Rectangle-Copy-12" fill="#FFFFFF" x="50" y="17" width="17" height="17"></rect>
                    <rect id="Rectangle-Copy-16" fill="#121212" x="50" y="0" width="17" height="17"></rect>
                    <rect id="Rectangle-Copy-167" fill="#121212" x="0" y="34" width="17" height="17"></rect>
                    <rect id="Rectangle-Copy-169" fill="#121212" x="0" y="51" width="17" height="17"></rect>
                    <rect id="Rectangle-Copy-13" fill="#FF7939" x="66" y="17" width="17" height="17"></rect>
                    <rect id="Rectangle-Copy-27" fill="#FF7939" x="66" y="34" width="17" height="17"></rect>
                    <rect id="Rectangle-Copy-32" fill="#FF7939" x="16" y="51" width="17" height="17"></rect>
                    <rect id="Rectangle-Copy-88" fill="#FF7939" x="16" y="152" width="17" height="17"></rect>
                    <rect id="Rectangle-Copy-98" fill="#FF7939" x="66" y="152" width="17" height="17"></rect>
                    <rect id="Rectangle-Copy-99" fill="#FF7939" x="82" y="152" width="17" height="17"></rect>
                    <rect id="Rectangle-Copy-89" fill="#FF7939" x="16" y="169" width="17" height="17"></rect>
                    <rect id="Rectangle-Copy-190" fill="#FF7939" x="33" y="203" width="17" height="17"></rect>
                    <rect id="Rectangle-Copy-189" fill="#FF7939" x="148" y="186" width="17" height="17"></rect>
                    <rect id="Rectangle-Copy-42" fill="#844AE0" x="16" y="68" width="17" height="17"></rect>
                    <rect id="Rectangle-Copy-171" fill="#844AE0" x="115" y="0" width="17" height="17"></rect>
                    <rect id="Rectangle-Copy-173" fill="#844AE0" x="132" y="0" width="17" height="17"></rect>
                    <rect id="Rectangle-Copy-175" fill="#844AE0" x="148" y="34" width="17" height="17"></rect>
                    <rect id="Rectangle-Copy-29" fill="#FDEE05" x="50" y="34" width="17" height="17"></rect>
                    <rect id="Rectangle-Copy-35" fill="#FDEE05" x="82" y="51" width="17" height="17"></rect>
                    <rect id="Rectangle-Copy-38" fill="#FDEE05" x="82" y="68" width="17" height="17"></rect>
                    <rect id="Rectangle-Copy-179" fill="#FDEE05" x="148" y="0" width="17" height="17"></rect>
                    <rect id="Rectangle-Copy-179" fill="#FDEE05" x="148" y="17" width="17" height="17"></rect>
                    <rect id="Rectangle-Copy-37" fill="#FDEE05" x="98" y="51" width="17" height="17"></rect>
                    <rect id="Rectangle-Copy-30" fill="#FDEE05" x="33" y="34" width="17" height="17"></rect>
                    <rect id="Rectangle-Copy-59" fill="#FDEE05" x="16" y="85" width="17" height="17"></rect>
                    <rect id="Rectangle-Copy-65" fill="#FDEE05" x="16" y="118" width="17" height="17"></rect>
                    <rect id="Rectangle-Copy-90" fill="#FDEE05" x="33" y="169" width="17" height="17"></rect>
                    <rect id="Rectangle-Copy-97" fill="#FDEE05" x="50" y="152" width="17" height="17"></rect>
                    <rect id="Rectangle-Copy-94" fill="#FDEE05" x="66" y="186" width="17" height="17"></rect>
                    <rect id="Rectangle-Copy-109" fill="#FDEE05" x="115" y="169" width="17" height="17"></rect>
                    <rect id="Rectangle-Copy-91" fill="#FDEE05" x="33" y="186" width="17" height="17"></rect>
                    <rect id="Rectangle-Copy-95" fill="#FDEE05" x="66" y="203" width="17" height="17"></rect>
                    <rect id="Rectangle-Copy-66" fill="#FDEE05" x="33" y="118" width="17" height="17"></rect>
                    <rect id="Rectangle-Copy-36" fill="#FDEE05" x="66" y="51" width="17" height="17"></rect>
                    <rect id="Rectangle-Copy-28" fill="#FF7939" x="82" y="34" width="17" height="17"></rect>
                    <rect id="Rectangle-Copy-33" fill="#FF7939" x="33" y="51" width="17" height="17"></rect>
                    <rect id="Rectangle-Copy-161" fill="#FF7939" x="0" y="17" width="17" height="17"></rect>
                    <rect id="Rectangle-Copy-43" fill="#844AE0" x="33" y="68" width="17" height="17"></rect>
                    <rect id="Rectangle-Copy-74" fill="#844AE0" x="82" y="85" width="17" height="17"></rect>
                    <rect id="Rectangle-Copy-75" fill="#844AE0" x="82" y="102" width="17" height="17"></rect>
                    <rect id="Rectangle-Copy-77" fill="#844AE0" x="98" y="118" width="17" height="17"></rect>
                    <rect id="Rectangle-Copy-81" fill="#844AE0" x="82" y="135" width="17" height="17"></rect>
                    <rect id="Rectangle-Copy-195" fill="#844AE0" x="0" y="135" width="17" height="17"></rect>
                    <rect id="Rectangle-Copy-196" fill="#844AE0" x="0" y="186" width="17" height="17"></rect>
                    <rect id="Rectangle-Copy-197" fill="#844AE0" x="16" y="203" width="17" height="17"></rect>
                    <rect id="Rectangle-Copy-82" fill="#844AE0" x="66" y="135" width="17" height="17"></rect>
                    <rect id="Rectangle-Copy-105" fill="#844AE0" x="66" y="169" width="17" height="17"></rect>
                    <rect id="Rectangle-Copy-47" fill="#844AE0" x="98" y="68" width="17" height="17"></rect>
                    <rect id="Rectangle-Copy-49" fill="#844AE0" x="132" y="68" width="17" height="17"></rect>
                    <rect id="Rectangle-Copy-103" fill="#844AE0" x="148" y="102" width="17" height="17"></rect>
                    <rect id="Rectangle-Copy-104" fill="#844AE0" x="148" y="118" width="17" height="17"></rect>
                    <rect id="Rectangle-Copy-17" fill="#121212" x="66" y="0" width="17" height="17"></rect>
                    <rect id="Rectangle-Copy-14" fill="#FFFFFF" x="82" y="17" width="17" height="17"></rect>
                    <rect id="Rectangle-Copy-18" fill="#EA4D8C" x="82" y="0" width="17" height="17"></rect>
                    <rect id="Rectangle-Copy-31" fill="#EA4D8C" x="16" y="34" width="17" height="17"></rect>
                    <rect id="Rectangle-Copy-165" fill="#EA4D8C" x="33" y="0" width="17" height="17"></rect>
                    <rect id="Rectangle-Copy-45" fill="#EA4D8C" x="50" y="68" width="17" height="17"></rect>
                    <rect id="Rectangle-Copy-76" fill="#EA4D8C" x="82" y="118" width="17" height="17"></rect>
                    <rect id="Rectangle-Copy-100" fill="#EA4D8C" x="98" y="152" width="17" height="17"></rect>
                    <rect id="Rectangle-Copy-106" fill="#EA4D8C" x="82" y="169" width="17" height="17"></rect>
                    <rect id="Rectangle-Copy-102" fill="#EA4D8C" x="132" y="152" width="17" height="17"></rect>
                    <rect id="Rectangle-Copy-186" fill="#EA4D8C" x="132" y="203" width="17" height="17"></rect>
                    <rect id="Rectangle-Copy-187" fill="#EA4D8C" x="132" y="186" width="17" height="17"></rect>
                    <rect id="Rectangle-Copy-193" fill="#EA4D8C" x="0" y="169" width="17" height="17"></rect>
                    <rect id="Rectangle-Copy-194" fill="#EA4D8C" x="0" y="152" width="17" height="17"></rect>
                    <rect id="Rectangle-Copy-15" fill="#121212" x="98" y="17" width="17" height="17"></rect>
                    <rect id="Rectangle-Copy-177" fill="#121212" x="132" y="17" width="17" height="17"></rect>
                    <rect id="Rectangle-Copy-56" fill="#121212" x="50" y="85" width="17" height="17"></rect>
                    <polygon id="Rectangle-Copy-69" fill="#121212" transform="translate(123.500000, 110.500000) rotate(-270.000000) translate(-123.500000, -110.500000) " points="115 102 132 102 132 119 115 119"></polygon>
                    <polygon id="Rectangle-Copy-80" fill="#24EDFC" transform="translate(106.500000, 143.500000) rotate(-270.000000) translate(-106.500000, -143.500000) " points="98 135 115 135 115 152 98 152"></polygon>
                    <polygon id="Rectangle-Copy-101" fill="#121212" transform="translate(123.500000, 160.500000) rotate(-270.000000) translate(-123.500000, -160.500000) " points="115 152 132 152 132 169 115 169"></polygon>
                    <polygon id="Rectangle-Copy-116" fill="#121212" transform="translate(123.500000, 194.500000) rotate(-270.000000) translate(-123.500000, -194.500000) " points="115 186 132 186 132 203 115 203"></polygon>
                    <polygon id="Rectangle-Copy-107" fill="#121212" transform="translate(106.500000, 177.500000) rotate(-270.000000) translate(-106.500000, -177.500000) " points="98 169 115 169 115 186 98 186"></polygon>
                    <polygon id="Rectangle-Copy-108" fill="#121212" transform="translate(90.500000, 194.500000) rotate(-270.000000) translate(-90.500000, -194.500000) " points="82 186 99 186 99 203 82 203"></polygon>
                    <polygon id="Rectangle-Copy-191" fill="#121212" transform="translate(24.500000, 194.500000) rotate(-270.000000) translate(-24.500000, -194.500000) " points="16 186 33 186 33 203 16 203"></polygon>
                    <polygon id="Rectangle-Copy-184" fill="#121212" transform="translate(156.500000, 143.500000) rotate(-270.000000) translate(-156.500000, -143.500000) " points="148 135 165 135 165 152 148 152"></polygon>
                    <polygon id="Rectangle-Copy-96" fill="#121212" transform="translate(58.500000, 177.500000) rotate(-270.000000) translate(-58.500000, -177.500000) " points="50 169 67 169 67 186 50 186"></polygon>
                    <rect id="Rectangle-Copy-61" fill="#121212" x="0" y="102" width="17" height="17"></rect>
                    <rect id="Rectangle-Copy-86" fill="#121212" x="16" y="135" width="17" height="17"></rect>
                    <rect id="Rectangle-Copy-58" fill="#121212" x="33" y="85" width="17" height="17"></rect>
                    <polygon id="Rectangle-Copy-70" fill="#121212" transform="translate(123.500000, 93.500000) rotate(-270.000000) translate(-123.500000, -93.500000) " points="115 85 132 85 132 102 115 102"></polygon>
                    <rect id="Rectangle-Copy-26" fill="#121212" x="98" y="34" width="17" height="17"></rect>
                    <rect id="Rectangle-Copy-57" fill="#121212" x="50" y="102" width="17" height="17"></rect>
                    <polygon id="Rectangle-Copy-71" fill="#121212" transform="translate(106.500000, 110.500000) rotate(-270.000000) translate(-106.500000, -110.500000) " points="98 102 115 102 115 119 98 119"></polygon>
                    <rect id="Rectangle-Copy-39" fill="#121212" x="115" y="51" width="17" height="17"></rect>
                    <rect id="Rectangle-Copy-50" fill="#121212" x="148" y="68" width="17" height="17"></rect>
                    <rect id="Rectangle-Copy-20" fill="#EA4D8C" x="98" y="0" width="17" height="17"></rect>
                </g>
                <rect id="Rectangle" fill="#38FF6E" opacity="0.400000006" style="mix-blend-mode: color;" x="0" y="0" width="330" height="220"></rect>
            </g>
        </g>
    </g>
</svg>