<svg
  xmlns="http://www.w3.org/2000/svg"
  xmlns:xlink="http://www.w3.org/1999/xlink"
  viewBox="0 0 1465 310"
>
  <defs>
    <path id="a" d="M0 0h1465v310H0z"/>
    <path id="c" d="M0 0h60v60H0z"/>
    <path id="e" d="M0 0h60v60H0z"/>
    <path id="g" d="M0 0h60v60H0z"/>
    <path id="i" d="M0 0h60v60H0z"/>
    <path id="k" d="M0 0h60v60H0z"/>
  </defs>
  <g fill="none" fill-rule="evenodd">
    <g>
      <mask id="b" fill="#fff">
        <use xlink:href="#a"/>
      </mask>
      <use fill="#121212" xlink:href="#a"/>
      <g mask="url(#b)">
        <g opacity=".07" fill="#E5E5E5">
          <path d="M28 29v1H-89v-1z"/>
          <path d="M31 27h-1V-90h1z"/>
        </g>
        <g opacity=".15" fill="#EAEAEA">
          <path d="M30 27h1v5h-1z"/>
          <path d="M33 29v1h-5v-1z"/>
        </g>
        <g opacity=".07" fill="#E5E5E5">
          <path d="M272 29v1H155v-1z"/>
          <path d="M214 27h-1V-90h1z"/>
          <path d="M275 27h-1V-90h1z"/>
        </g>
        <g opacity=".15" fill="#EAEAEA">
          <path d="M213 27h1v5h-1z"/>
          <path d="M216 29v1h-5v-1z"/>
          <g>
            <path d="M274 27h1v5h-1z"/>
            <path d="M277 29v1h-5v-1z"/>
          </g>
        </g>
        <g>
          <g opacity=".07" fill="#E5E5E5">
            <path d="M150 29v1H33v-1z"/>
            <path d="M92 27h-1V-90h1z"/>
            <path d="M153 27h-1V-90h1z"/>
          </g>
          <g opacity=".15" fill="#EAEAEA">
            <path d="M91 27h1v5h-1z"/>
            <path d="M94 29v1h-5v-1z"/>
            <g>
              <path d="M152 27h1v5h-1z"/>
              <path d="M155 29v1h-5v-1z"/>
            </g>
          </g>
        </g>
        <g>
          <g opacity=".07" fill="#E5E5E5">
            <path d="M394 29v1H277v-1z"/>
            <path d="M336 27h-1V-90h1z"/>
            <path d="M397 27h-1V-90h1z"/>
          </g>
          <g opacity=".15" fill="#EAEAEA">
            <path d="M335 27h1v5h-1z"/>
            <path d="M338 29v1h-5v-1z"/>
            <g>
              <path d="M396 27h1v5h-1z"/>
              <path d="M399 29v1h-5v-1z"/>
            </g>
          </g>
        </g>
        <g>
          <g opacity=".07" fill="#E5E5E5">
            <path d="M516 29v1H399v-1z"/>
            <path d="M458 27h-1V-90h1z"/>
            <path d="M519 27h-1V-90h1z"/>
          </g>
          <g opacity=".15" fill="#EAEAEA">
            <path d="M457 27h1v5h-1z"/>
            <path d="M460 29v1h-5v-1z"/>
            <g>
              <path d="M518 27h1v5h-1z"/>
              <path d="M521 29v1h-5v-1z"/>
            </g>
          </g>
          <g opacity=".07" fill="#E5E5E5">
            <path d="M760 29v1H643v-1z"/>
            <path d="M702 27h-1V-90h1z"/>
            <path d="M763 27h-1V-90h1z"/>
          </g>
          <g opacity=".15" fill="#EAEAEA">
            <path d="M701 27h1v5h-1z"/>
            <path d="M704 29v1h-5v-1z"/>
            <g>
              <path d="M762 27h1v5h-1z"/>
              <path d="M765 29v1h-5v-1z"/>
            </g>
          </g>
          <g>
            <g opacity=".07" fill="#E5E5E5">
              <path d="M638 29v1H521v-1z"/>
              <path d="M580 27h-1V-90h1z"/>
              <path d="M641 27h-1V-90h1z"/>
            </g>
            <g opacity=".15" fill="#EAEAEA">
              <path d="M579 27h1v5h-1z"/>
              <path d="M582 29v1h-5v-1z"/>
              <g>
                <path d="M640 27h1v5h-1z"/>
                <path d="M643 29v1h-5v-1z"/>
              </g>
            </g>
          </g>
          <g>
            <g opacity=".07" fill="#E5E5E5">
              <path d="M882 29v1H765v-1z"/>
              <path d="M824 27h-1V-90h1z"/>
              <path d="M885 27h-1V-90h1z"/>
            </g>
            <g opacity=".15" fill="#EAEAEA">
              <path d="M823 27h1v5h-1z"/>
              <path d="M826 29v1h-5v-1z"/>
              <g>
                <path d="M884 27h1v5h-1z"/>
                <path d="M887 29v1h-5v-1z"/>
              </g>
            </g>
          </g>
        </g>
        <g>
          <g opacity=".07" fill="#E5E5E5">
            <path d="M1004 29v1H887v-1z"/>
            <path d="M946 27h-1V-90h1z"/>
            <path d="M1007 27h-1V-90h1z"/>
          </g>
          <g opacity=".15" fill="#EAEAEA">
            <path d="M945 27h1v5h-1z"/>
            <path d="M948 29v1h-5v-1z"/>
            <g>
              <path d="M1006 27h1v5h-1z"/>
              <path d="M1009 29v1h-5v-1z"/>
            </g>
          </g>
          <g opacity=".07" fill="#E5E5E5">
            <path d="M1248 29v1h-117v-1z"/>
            <path d="M1190 27h-1V-90h1z"/>
            <path d="M1251 27h-1V-90h1z"/>
          </g>
          <g opacity=".15" fill="#EAEAEA">
            <path d="M1189 27h1v5h-1z"/>
            <path d="M1192 29v1h-5v-1z"/>
            <g>
              <path d="M1250 27h1v5h-1z"/>
              <path d="M1253 29v1h-5v-1z"/>
            </g>
          </g>
          <g opacity=".07" fill="#E5E5E5">
            <path d="M1126 29v1h-117v-1z"/>
            <path d="M1068 27h-1V-90h1z"/>
            <path d="M1129 27h-1V-90h1z"/>
          </g>
          <g opacity=".15" fill="#EAEAEA">
            <path d="M1067 27h1v5h-1z"/>
            <path d="M1070 29v1h-5v-1z"/>
            <g>
              <path d="M1128 27h1v5h-1z"/>
              <path d="M1131 29v1h-5v-1z"/>
            </g>
          </g>
          <g>
            <g opacity=".07" fill="#E5E5E5">
              <path d="M1370 29v1h-117v-1z"/>
              <path d="M1312 27h-1V-90h1z"/>
              <path d="M1373 27h-1V-90h1z"/>
            </g>
            <g opacity=".15" fill="#EAEAEA">
              <path d="M1311 27h1v5h-1z"/>
              <path d="M1314 29v1h-5v-1z"/>
              <g>
                <path d="M1372 27h1v5h-1z"/>
                <path d="M1375 29v1h-5v-1z"/>
              </g>
            </g>
          </g>
          <g>
            <g opacity=".07" fill="#E5E5E5">
              <path d="M1492 29v1h-117v-1z"/>
              <path d="M1434 27h-1V-90h1z"/>
            </g>
            <g opacity=".15" fill="#EAEAEA">
              <path d="M1433 27h1v5h-1z"/>
              <path d="M1436 29v1h-5v-1z"/>
            </g>
          </g>
        </g>
        <g>
          <g opacity=".07" fill="#E5E5E5">
            <path d="M28 212v1H-89v-1z"/>
            <path d="M28 273v1H-89v-1z"/>
            <path d="M31 271h-1V154h1z"/>
          </g>
          <g opacity=".15" fill="#EAEAEA">
            <path d="M30 271h1v5h-1z"/>
            <path d="M33 273v1h-5v-1z"/>
            <g>
              <path d="M30 210h1v5h-1z"/>
              <path d="M33 212v1h-5v-1z"/>
            </g>
          </g>
          <g opacity=".07" fill="#E5E5E5">
            <path d="M272 212v1H155v-1z"/>
            <path d="M272 273v1H155v-1z"/>
            <path d="M214 271h-1V154h1z"/>
            <path d="M275 271h-1V154h1z"/>
          </g>
          <g opacity=".15" fill="#EAEAEA">
            <path d="M213 210h1v5h-1z"/>
            <path d="M216 212v1h-5v-1z"/>
            <path d="M213 271h1v5h-1z"/>
            <path d="M216 273v1h-5v-1z"/>
            <g>
              <path d="M274 271h1v5h-1z"/>
              <path d="M277 273v1h-5v-1z"/>
            </g>
            <g>
              <path d="M274 210h1v5h-1z"/>
              <path d="M277 212v1h-5v-1z"/>
            </g>
          </g>
          <g>
            <g opacity=".07" fill="#E5E5E5">
              <path d="M150 212v1H33v-1z"/>
              <path d="M150 273v1H33v-1z"/>
              <path d="M92 271h-1V154h1z"/>
              <path d="M153 271h-1V154h1z"/>
            </g>
            <g opacity=".15" fill="#EAEAEA">
              <path d="M91 210h1v5h-1z"/>
              <path d="M94 212v1h-5v-1z"/>
              <path d="M91 271h1v5h-1z"/>
              <path d="M94 273v1h-5v-1z"/>
              <g>
                <path d="M152 271h1v5h-1z"/>
                <path d="M155 273v1h-5v-1z"/>
              </g>
              <g>
                <path d="M152 210h1v5h-1z"/>
                <path d="M155 212v1h-5v-1z"/>
              </g>
            </g>
          </g>
          <g>
            <g opacity=".07" fill="#E5E5E5">
              <path d="M394 212v1H277v-1z"/>
              <path d="M394 273v1H277v-1z"/>
              <path d="M336 271h-1V154h1z"/>
              <path d="M397 271h-1V154h1z"/>
            </g>
            <g opacity=".15" fill="#EAEAEA">
              <path d="M335 210h1v5h-1z"/>
              <path d="M338 212v1h-5v-1z"/>
              <path d="M335 271h1v5h-1z"/>
              <path d="M338 273v1h-5v-1z"/>
              <g>
                <path d="M396 271h1v5h-1z"/>
                <path d="M399 273v1h-5v-1z"/>
              </g>
              <g>
                <path d="M396 210h1v5h-1z"/>
                <path d="M399 212v1h-5v-1z"/>
              </g>
            </g>
          </g>
          <g>
            <g opacity=".07" fill="#E5E5E5">
              <path d="M516 212v1H399v-1z"/>
              <path d="M516 273v1H399v-1z"/>
              <path d="M458 271h-1V154h1z"/>
              <path d="M519 271h-1V154h1z"/>
            </g>
            <g opacity=".15" fill="#EAEAEA">
              <path d="M457 210h1v5h-1z"/>
              <path d="M460 212v1h-5v-1z"/>
              <path d="M457 271h1v5h-1z"/>
              <path d="M460 273v1h-5v-1z"/>
              <g>
                <path d="M518 271h1v5h-1z"/>
                <path d="M521 273v1h-5v-1z"/>
              </g>
              <g>
                <path d="M518 210h1v5h-1z"/>
                <path d="M521 212v1h-5v-1z"/>
              </g>
            </g>
            <g opacity=".07" fill="#E5E5E5">
              <path d="M760 212v1H643v-1z"/>
              <path d="M760 273v1H643v-1z"/>
              <path d="M702 271h-1V154h1z"/>
              <path d="M763 271h-1V154h1z"/>
            </g>
            <g opacity=".15" fill="#EAEAEA">
              <path d="M701 210h1v5h-1z"/>
              <path d="M704 212v1h-5v-1z"/>
              <path d="M701 271h1v5h-1z"/>
              <path d="M704 273v1h-5v-1z"/>
              <g>
                <path d="M762 271h1v5h-1z"/>
                <path d="M765 273v1h-5v-1z"/>
              </g>
              <g>
                <path d="M762 210h1v5h-1z"/>
                <path d="M765 212v1h-5v-1z"/>
              </g>
            </g>
            <g>
              <g opacity=".07" fill="#E5E5E5">
                <path d="M638 212v1H521v-1z"/>
                <path d="M638 273v1H521v-1z"/>
                <path d="M580 271h-1V154h1z"/>
                <path d="M641 271h-1V154h1z"/>
              </g>
              <g opacity=".15" fill="#EAEAEA">
                <path d="M579 210h1v5h-1z"/>
                <path d="M582 212v1h-5v-1z"/>
                <path d="M579 271h1v5h-1z"/>
                <path d="M582 273v1h-5v-1z"/>
                <g>
                  <path d="M640 271h1v5h-1z"/>
                  <path d="M643 273v1h-5v-1z"/>
                </g>
                <g>
                  <path d="M640 210h1v5h-1z"/>
                  <path d="M643 212v1h-5v-1z"/>
                </g>
              </g>
            </g>
            <g>
              <g opacity=".07" fill="#E5E5E5">
                <path d="M882 212v1H765v-1z"/>
                <path d="M882 273v1H765v-1z"/>
                <path d="M824 271h-1V154h1z"/>
                <path d="M885 271h-1V154h1z"/>
              </g>
              <g opacity=".15" fill="#EAEAEA">
                <path d="M823 210h1v5h-1z"/>
                <path d="M826 212v1h-5v-1z"/>
                <path d="M823 271h1v5h-1z"/>
                <path d="M826 273v1h-5v-1z"/>
                <g>
                  <path d="M884 271h1v5h-1z"/>
                  <path d="M887 273v1h-5v-1z"/>
                </g>
                <g>
                  <path d="M884 210h1v5h-1z"/>
                  <path d="M887 212v1h-5v-1z"/>
                </g>
              </g>
            </g>
          </g>
          <g>
            <g opacity=".07" fill="#E5E5E5">
              <path d="M1004 212v1H887v-1z"/>
              <path d="M1004 273v1H887v-1z"/>
              <path d="M946 271h-1V154h1z"/>
              <path d="M1007 271h-1V154h1z"/>
            </g>
            <g opacity=".15" fill="#EAEAEA">
              <path d="M945 210h1v5h-1z"/>
              <path d="M948 212v1h-5v-1z"/>
              <path d="M945 271h1v5h-1z"/>
              <path d="M948 273v1h-5v-1z"/>
              <g>
                <path d="M1006 271h1v5h-1z"/>
                <path d="M1009 273v1h-5v-1z"/>
              </g>
              <g>
                <path d="M1006 210h1v5h-1z"/>
                <path d="M1009 212v1h-5v-1z"/>
              </g>
            </g>
            <g opacity=".07" fill="#E5E5E5">
              <path d="M1248 212v1h-117v-1z"/>
              <path d="M1248 273v1h-117v-1z"/>
              <path d="M1190 271h-1V154h1z"/>
              <path d="M1251 271h-1V154h1z"/>
            </g>
            <g opacity=".15" fill="#EAEAEA">
              <path d="M1189 210h1v5h-1z"/>
              <path d="M1192 212v1h-5v-1z"/>
              <path d="M1189 271h1v5h-1z"/>
              <path d="M1192 273v1h-5v-1z"/>
              <g>
                <path d="M1250 271h1v5h-1z"/>
                <path d="M1253 273v1h-5v-1z"/>
              </g>
              <g>
                <path d="M1250 210h1v5h-1z"/>
                <path d="M1253 212v1h-5v-1z"/>
              </g>
            </g>
            <g opacity=".07" fill="#E5E5E5">
              <path d="M1126 212v1h-117v-1z"/>
              <path d="M1126 273v1h-117v-1z"/>
              <path d="M1068 271h-1V154h1z"/>
              <path d="M1129 271h-1V154h1z"/>
            </g>
            <g opacity=".15" fill="#EAEAEA">
              <path d="M1067 210h1v5h-1z"/>
              <path d="M1070 212v1h-5v-1z"/>
              <path d="M1067 271h1v5h-1z"/>
              <path d="M1070 273v1h-5v-1z"/>
              <g>
                <path d="M1128 271h1v5h-1z"/>
                <path d="M1131 273v1h-5v-1z"/>
              </g>
              <g>
                <path d="M1128 210h1v5h-1z"/>
                <path d="M1131 212v1h-5v-1z"/>
              </g>
            </g>
            <g>
              <g opacity=".07" fill="#E5E5E5">
                <path d="M1370 212v1h-117v-1z"/>
                <path d="M1370 273v1h-117v-1z"/>
                <path d="M1312 271h-1V154h1z"/>
                <path d="M1373 271h-1V154h1z"/>
              </g>
              <g opacity=".15" fill="#EAEAEA">
                <path d="M1311 210h1v5h-1z"/>
                <path d="M1314 212v1h-5v-1z"/>
                <path d="M1311 271h1v5h-1z"/>
                <path d="M1314 273v1h-5v-1z"/>
                <g>
                  <path d="M1372 271h1v5h-1z"/>
                  <path d="M1375 273v1h-5v-1z"/>
                </g>
                <g>
                  <path d="M1372 210h1v5h-1z"/>
                  <path d="M1375 212v1h-5v-1z"/>
                </g>
              </g>
            </g>
            <g>
              <g opacity=".07" fill="#E5E5E5">
                <path d="M1492 212v1h-117v-1z"/>
                <path d="M1492 273v1h-117v-1z"/>
                <path d="M1434 271h-1V154h1z"/>
              </g>
              <g opacity=".15" fill="#EAEAEA">
                <path d="M1433 210h1v5h-1z"/>
                <path d="M1436 212v1h-5v-1z"/>
                <g>
                  <path d="M1433 271h1v5h-1z"/>
                  <path d="M1436 273v1h-5v-1z"/>
                </g>
              </g>
            </g>
          </g>
        </g>
        <g>
          <g opacity=".07" fill="#E5E5E5">
            <path d="M28 90v1H-89v-1z"/>
            <path d="M28 151v1H-89v-1z"/>
            <path d="M31 149h-1V32h1z"/>
          </g>
          <g opacity=".15" fill="#EAEAEA">
            <path d="M30 149h1v5h-1z"/>
            <path d="M33 151v1h-5v-1z"/>
            <g>
              <path d="M30 88h1v5h-1z"/>
              <path d="M33 90v1h-5v-1z"/>
            </g>
          </g>
          <g opacity=".07" fill="#E5E5E5">
            <path d="M272 90v1H155v-1z"/>
            <path d="M272 151v1H155v-1z"/>
            <path d="M214 149h-1V32h1z"/>
            <path d="M275 149h-1V32h1z"/>
          </g>
          <g opacity=".15" fill="#EAEAEA">
            <path d="M213 88h1v5h-1z"/>
            <path d="M216 90v1h-5v-1z"/>
            <path d="M213 149h1v5h-1z"/>
            <path d="M216 151v1h-5v-1z"/>
            <g>
              <path d="M274 149h1v5h-1z"/>
              <path d="M277 151v1h-5v-1z"/>
            </g>
            <g>
              <path d="M274 88h1v5h-1z"/>
              <path d="M277 90v1h-5v-1z"/>
            </g>
          </g>
          <g>
            <g opacity=".07" fill="#E5E5E5">
              <path d="M150 90v1H33v-1z"/>
              <path d="M150 151v1H33v-1z"/>
              <path d="M92 149h-1V32h1z"/>
              <path d="M153 149h-1V32h1z"/>
            </g>
            <g opacity=".15" fill="#EAEAEA">
              <path d="M91 88h1v5h-1z"/>
              <path d="M94 90v1h-5v-1z"/>
              <path d="M91 149h1v5h-1z"/>
              <path d="M94 151v1h-5v-1z"/>
              <g>
                <path d="M152 149h1v5h-1z"/>
                <path d="M155 151v1h-5v-1z"/>
              </g>
              <g>
                <path d="M152 88h1v5h-1z"/>
                <path d="M155 90v1h-5v-1z"/>
              </g>
            </g>
          </g>
          <g>
            <g opacity=".07" fill="#E5E5E5">
              <path d="M394 90v1H277v-1z"/>
              <path d="M394 151v1H277v-1z"/>
              <path d="M336 149h-1V32h1z"/>
              <path d="M397 149h-1V32h1z"/>
            </g>
            <g opacity=".15" fill="#EAEAEA">
              <path d="M335 88h1v5h-1z"/>
              <path d="M338 90v1h-5v-1z"/>
              <path d="M335 149h1v5h-1z"/>
              <path d="M338 151v1h-5v-1z"/>
              <g>
                <path d="M396 149h1v5h-1z"/>
                <path d="M399 151v1h-5v-1z"/>
              </g>
              <g>
                <path d="M396 88h1v5h-1z"/>
                <path d="M399 90v1h-5v-1z"/>
              </g>
            </g>
          </g>
          <g>
            <g opacity=".07" fill="#E5E5E5">
              <path d="M516 90v1H399v-1z"/>
              <path d="M516 151v1H399v-1z"/>
              <path d="M458 149h-1V32h1z"/>
              <path d="M519 149h-1V32h1z"/>
            </g>
            <g opacity=".15" fill="#EAEAEA">
              <path d="M457 88h1v5h-1z"/>
              <path d="M460 90v1h-5v-1z"/>
              <path d="M457 149h1v5h-1z"/>
              <path d="M460 151v1h-5v-1z"/>
              <g>
                <path d="M518 149h1v5h-1z"/>
                <path d="M521 151v1h-5v-1z"/>
              </g>
              <g>
                <path d="M518 88h1v5h-1z"/>
                <path d="M521 90v1h-5v-1z"/>
              </g>
            </g>
            <g opacity=".07" fill="#E5E5E5">
              <path d="M760 90v1H643v-1z"/>
              <path d="M760 151v1H643v-1z"/>
              <path d="M702 149h-1V32h1z"/>
              <path d="M763 149h-1V32h1z"/>
            </g>
            <g opacity=".15" fill="#EAEAEA">
              <path d="M701 88h1v5h-1z"/>
              <path d="M704 90v1h-5v-1z"/>
              <path d="M701 149h1v5h-1z"/>
              <path d="M704 151v1h-5v-1z"/>
              <g>
                <path d="M762 149h1v5h-1z"/>
                <path d="M765 151v1h-5v-1z"/>
              </g>
              <g>
                <path d="M762 88h1v5h-1z"/>
                <path d="M765 90v1h-5v-1z"/>
              </g>
            </g>
            <g>
              <g opacity=".07" fill="#E5E5E5">
                <path d="M638 90v1H521v-1z"/>
                <path d="M638 151v1H521v-1z"/>
                <path d="M580 149h-1V32h1z"/>
                <path d="M641 149h-1V32h1z"/>
              </g>
              <g opacity=".15" fill="#EAEAEA">
                <path d="M579 88h1v5h-1z"/>
                <path d="M582 90v1h-5v-1z"/>
                <path d="M579 149h1v5h-1z"/>
                <path d="M582 151v1h-5v-1z"/>
                <g>
                  <path d="M640 149h1v5h-1z"/>
                  <path d="M643 151v1h-5v-1z"/>
                </g>
                <g>
                  <path d="M640 88h1v5h-1z"/>
                  <path d="M643 90v1h-5v-1z"/>
                </g>
              </g>
            </g>
            <g>
              <g opacity=".07" fill="#E5E5E5">
                <path d="M882 90v1H765v-1z"/>
                <path d="M882 151v1H765v-1z"/>
                <path d="M824 149h-1V32h1z"/>
                <path d="M885 149h-1V32h1z"/>
              </g>
              <g opacity=".15" fill="#EAEAEA">
                <path d="M823 88h1v5h-1z"/>
                <path d="M826 90v1h-5v-1z"/>
                <path d="M823 149h1v5h-1z"/>
                <path d="M826 151v1h-5v-1z"/>
                <g>
                  <path d="M884 149h1v5h-1z"/>
                  <path d="M887 151v1h-5v-1z"/>
                </g>
                <g>
                  <path d="M884 88h1v5h-1z"/>
                  <path d="M887 90v1h-5v-1z"/>
                </g>
              </g>
            </g>
          </g>
          <g>
            <g opacity=".07" fill="#E5E5E5">
              <path d="M1004 90v1H887v-1z"/>
              <path d="M1004 151v1H887v-1z"/>
              <path d="M946 149h-1V32h1z"/>
              <path d="M1007 149h-1V32h1z"/>
            </g>
            <g opacity=".15" fill="#EAEAEA">
              <path d="M945 88h1v5h-1z"/>
              <path d="M948 90v1h-5v-1z"/>
              <path d="M945 149h1v5h-1z"/>
              <path d="M948 151v1h-5v-1z"/>
              <g>
                <path d="M1006 149h1v5h-1z"/>
                <path d="M1009 151v1h-5v-1z"/>
              </g>
              <g>
                <path d="M1006 88h1v5h-1z"/>
                <path d="M1009 90v1h-5v-1z"/>
              </g>
            </g>
            <g opacity=".07" fill="#E5E5E5">
              <path d="M1248 90v1h-117v-1z"/>
              <path d="M1248 151v1h-117v-1z"/>
              <path d="M1190 149h-1V32h1z"/>
              <path d="M1251 149h-1V32h1z"/>
            </g>
            <g opacity=".15" fill="#EAEAEA">
              <path d="M1189 88h1v5h-1z"/>
              <path d="M1192 90v1h-5v-1z"/>
              <path d="M1189 149h1v5h-1z"/>
              <path d="M1192 151v1h-5v-1z"/>
              <g>
                <path d="M1250 149h1v5h-1z"/>
                <path d="M1253 151v1h-5v-1z"/>
              </g>
              <g>
                <path d="M1250 88h1v5h-1z"/>
                <path d="M1253 90v1h-5v-1z"/>
              </g>
            </g>
            <g opacity=".07" fill="#E5E5E5">
              <path d="M1126 90v1h-117v-1z"/>
              <path d="M1126 151v1h-117v-1z"/>
              <path d="M1068 149h-1V32h1z"/>
              <path d="M1129 149h-1V32h1z"/>
            </g>
            <g opacity=".15" fill="#EAEAEA">
              <path d="M1067 88h1v5h-1z"/>
              <path d="M1070 90v1h-5v-1z"/>
              <path d="M1067 149h1v5h-1z"/>
              <path d="M1070 151v1h-5v-1z"/>
              <g>
                <path d="M1128 149h1v5h-1z"/>
                <path d="M1131 151v1h-5v-1z"/>
              </g>
              <g>
                <path d="M1128 88h1v5h-1z"/>
                <path d="M1131 90v1h-5v-1z"/>
              </g>
            </g>
            <g>
              <g opacity=".07" fill="#E5E5E5">
                <path d="M1370 90v1h-117v-1z"/>
                <path d="M1370 151v1h-117v-1z"/>
                <path d="M1312 149h-1V32h1z"/>
                <path d="M1373 149h-1V32h1z"/>
              </g>
              <g opacity=".15" fill="#EAEAEA">
                <path d="M1311 88h1v5h-1z"/>
                <path d="M1314 90v1h-5v-1z"/>
                <path d="M1311 149h1v5h-1z"/>
                <path d="M1314 151v1h-5v-1z"/>
                <g>
                  <path d="M1372 149h1v5h-1z"/>
                  <path d="M1375 151v1h-5v-1z"/>
                </g>
                <g>
                  <path d="M1372 88h1v5h-1z"/>
                  <path d="M1375 90v1h-5v-1z"/>
                </g>
              </g>
            </g>
            <g>
              <g opacity=".07" fill="#E5E5E5">
                <path d="M1492 90v1h-117v-1z"/>
                <path d="M1492 151v1h-117v-1z"/>
                <path d="M1434 149h-1V32h1z"/>
              </g>
              <g opacity=".15" fill="#EAEAEA">
                <path d="M1433 88h1v5h-1z"/>
                <path d="M1436 90v1h-5v-1z"/>
                <g>
                  <path d="M1433 149h1v5h-1z"/>
                  <path d="M1436 151v1h-5v-1z"/>
                </g>
              </g>
            </g>
          </g>
        </g>
        <g opacity=".07" fill="#E5E5E5">
          <path d="M31 393h-1V276h1z"/>
          <path d="M214 393h-1V276h1z"/>
          <path d="M275 393h-1V276h1z"/>
          <path d="M92 393h-1V276h1z"/>
          <path d="M153 393h-1V276h1z"/>
          <g>
            <path d="M336 393h-1V276h1z"/>
            <path d="M397 393h-1V276h1z"/>
          </g>
          <g>
            <path d="M458 393h-1V276h1z"/>
            <path d="M519 393h-1V276h1z"/>
            <path d="M702 393h-1V276h1z"/>
            <path d="M763 393h-1V276h1z"/>
            <g>
              <path d="M580 393h-1V276h1z"/>
              <path d="M641 393h-1V276h1z"/>
            </g>
            <g>
              <path d="M824 393h-1V276h1z"/>
              <path d="M885 393h-1V276h1z"/>
            </g>
          </g>
          <g>
            <path d="M946 393h-1V276h1z"/>
            <path d="M1007 393h-1V276h1z"/>
            <path d="M1190 393h-1V276h1z"/>
            <path d="M1251 393h-1V276h1z"/>
            <path d="M1068 393h-1V276h1z"/>
            <path d="M1129 393h-1V276h1z"/>
            <g>
              <path d="M1312 393h-1V276h1z"/>
              <path d="M1373 393h-1V276h1z"/>
            </g>
            <g>
              <path d="M1434 393h-1V276h1z"/>
            </g>
          </g>
        </g>
      </g>
    </g>
    <g opacity=".12" transform="translate(824 30)">
      <mask id="d" fill="#fff">
        <use xlink:href="#c"/>
      </mask>
      <path
        d="m134.295 49.732.705.704L50.436 135l-.704-.705 84.563-84.563Zm-2.114-2.115.705.705-84.564 84.564-.705-.705 84.564-84.564Zm-2.114-2.114.705.705-84.564 84.564-.705-.705 84.564-84.564Zm-2.114-2.114.705.705-84.564 84.564-.705-.705 84.564-84.564Zm-2.114-2.114.705.705-84.564 84.564-.705-.705 84.564-84.564Zm-2.114-2.114.705.705-84.564 84.564-.705-.705 84.564-84.564Zm-2.114-2.114.704.705-84.563 84.563-.705-.704 84.564-84.564Zm-2.114-2.114.704.705L35.638 120.2l-.705-.704 84.564-84.564Zm-2.114-2.114.704.704-84.564 84.564-.704-.704 84.564-84.564Zm-2.115-2.114.705.704-84.564 84.564-.704-.705 84.563-84.563Zm-2.114-2.114.705.704-84.564 84.564-.704-.705 84.563-84.563Zm-2.114-2.114.705.704-84.564 84.564-.704-.705 84.563-84.563Zm-2.114-2.115.705.705-84.564 84.564-.705-.705 84.564-84.564Zm-2.114-2.114.705.705-84.564 84.564-.705-.705 84.564-84.564Zm-2.114-2.114.705.705-84.564 84.564-.705-.705 84.564-84.564Zm-2.114-2.114.705.705-84.564 84.564-.705-.705 84.564-84.564Zm-2.114-2.114.704.705-84.563 84.563-.705-.704 84.564-84.564Zm-2.114-2.114.704.705L14.497 99.06l-.705-.704 84.564-84.564Zm-2.114-2.114.704.705-84.563 84.563-.705-.704 84.564-84.564Zm-2.114-2.114.704.704-84.564 84.564-.704-.704L94.128 9.564ZM92.013 7.45l.705.704L8.154 92.718l-.704-.705L92.013 7.45ZM89.9 5.336l.705.704L6.04 90.604l-.704-.705L89.899 5.336ZM87.785 3.22l.705.705L3.926 88.49l-.705-.705L87.785 3.221Zm-2.114-2.114.705.705L1.812 86.376l-.705-.705L85.671 1.107Zm-2.114-2.114.705.705L-.302 84.262l-.705-.705L83.557-1.007ZM81.443-3.12l.705.705-84.564 84.564-.705-.705L81.443-3.121Zm-2.114-2.114.705.705L-4.53 80.034l-.705-.705L79.33-5.235Zm-2.114-2.114.704.705-84.563 84.563-.705-.704L77.215-7.35ZM75.1-9.463l.704.705-84.563 84.563-.705-.704L75.1-9.463Zm-2.114-2.114.704.705-84.563 84.563-.705-.704 84.564-84.564Zm-2.115-2.114.705.704-84.564 84.564-.704-.705L70.872-13.69Zm-2.114-2.114.705.704L-15.1 69.463l-.704-.705 84.563-84.563Zm-2.114-2.114.705.704-84.564 84.564-.704-.705 84.563-84.563Zm-2.114-2.115.705.705-84.564 84.564-.705-.705L64.53-20.034Zm-2.114-2.114.705.705-84.564 84.564-.705-.705 84.564-84.564Zm-2.114-2.114.705.705-84.564 84.564-.705-.705 84.564-84.564Zm-2.114-2.114.705.705-84.564 84.564-.705-.705 84.564-84.564Zm-2.114-2.114.705.705-84.564 84.564-.705-.705L56.074-28.49Zm-2.114-2.114.704.705-84.563 84.563-.705-.704L53.96-30.604Zm-2.114-2.114.704.705-84.563 84.563-.705-.704 84.564-84.564Zm-2.114-2.114.704.704-84.564 84.564-.704-.704 84.564-84.564Zm-2.115-2.114.705.704-84.564 84.564-.704-.705 84.563-84.563Zm-2.114-2.114.705.704-84.564 84.564-.704-.705L45.503-39.06Zm-2.114-2.114.705.704-84.564 84.564-.704-.705 84.563-84.563Zm-2.114-2.115.705.705-84.564 84.564-.705-.705 84.564-84.564Zm-2.114-2.114.705.705-84.564 84.564-.705-.705 84.564-84.564Zm-2.114-2.114.705.705-84.564 84.564-.705-.705 84.564-84.564Zm-2.114-2.114.705.705-84.564 84.564-.705-.705 84.564-84.564Zm-2.114-2.114.704.705-84.563 84.563-.705-.704 84.564-84.564Zm-2.114-2.114.704.705-84.563 84.563-.705-.704L30.705-53.86Zm-2.114-2.114.704.705-84.563 84.563-.705-.704L28.59-55.973Zm-2.114-2.114.704.704-84.564 84.564-.704-.704 84.564-84.564Zm-2.115-2.114.705.704-84.564 84.564-.704-.705L24.362-60.2Zm-2.114-2.114.705.704-84.564 84.564-.704-.705 84.563-84.563Zm-2.114-2.115.705.705-84.564 84.564-.705-.705L20.134-64.43Zm-2.114-2.114.705.705-84.564 84.564-.705-.705L18.02-66.544Zm-2.114-2.114.705.705-84.564 84.564-.705-.705 84.564-84.564Zm-2.114-2.114.705.705-84.564 84.564-.705-.705 84.564-84.564Zm-2.114-2.114.705.705-84.564 84.564-.705-.705 84.564-84.564ZM9.564-75l.704.705-84.563 84.563-.705-.704L9.564-75Z"
        fill="#FFF"
        mask="url(#d)"
      />
    </g>
    <g opacity=".12" transform="translate(824 152)">
      <mask id="f" fill="#fff">
        <use xlink:href="#e"/>
      </mask>
      <path
        d="m134.295 49.732.705.704L50.436 135l-.704-.705 84.563-84.563Zm-2.114-2.115.705.705-84.564 84.564-.705-.705 84.564-84.564Zm-2.114-2.114.705.705-84.564 84.564-.705-.705 84.564-84.564Zm-2.114-2.114.705.705-84.564 84.564-.705-.705 84.564-84.564Zm-2.114-2.114.705.705-84.564 84.564-.705-.705 84.564-84.564Zm-2.114-2.114.705.705-84.564 84.564-.705-.705 84.564-84.564Zm-2.114-2.114.704.705-84.563 84.563-.705-.704 84.564-84.564Zm-2.114-2.114.704.705L35.638 120.2l-.705-.704 84.564-84.564Zm-2.114-2.114.704.704-84.564 84.564-.704-.704 84.564-84.564Zm-2.115-2.114.705.704-84.564 84.564-.704-.705 84.563-84.563Zm-2.114-2.114.705.704-84.564 84.564-.704-.705 84.563-84.563Zm-2.114-2.114.705.704-84.564 84.564-.704-.705 84.563-84.563Zm-2.114-2.115.705.705-84.564 84.564-.705-.705 84.564-84.564Zm-2.114-2.114.705.705-84.564 84.564-.705-.705 84.564-84.564Zm-2.114-2.114.705.705-84.564 84.564-.705-.705 84.564-84.564Zm-2.114-2.114.705.705-84.564 84.564-.705-.705 84.564-84.564Zm-2.114-2.114.704.705-84.563 84.563-.705-.704 84.564-84.564Zm-2.114-2.114.704.705L14.497 99.06l-.705-.704 84.564-84.564Zm-2.114-2.114.704.705-84.563 84.563-.705-.704 84.564-84.564Zm-2.114-2.114.704.704-84.564 84.564-.704-.704L94.128 9.564ZM92.013 7.45l.705.704L8.154 92.718l-.704-.705L92.013 7.45ZM89.9 5.336l.705.704L6.04 90.604l-.704-.705L89.899 5.336ZM87.785 3.22l.705.705L3.926 88.49l-.705-.705L87.785 3.221Zm-2.114-2.114.705.705L1.812 86.376l-.705-.705L85.671 1.107Zm-2.114-2.114.705.705L-.302 84.262l-.705-.705L83.557-1.007ZM81.443-3.12l.705.705-84.564 84.564-.705-.705L81.443-3.121Zm-2.114-2.114.705.705L-4.53 80.034l-.705-.705L79.33-5.235Zm-2.114-2.114.704.705-84.563 84.563-.705-.704L77.215-7.35ZM75.1-9.463l.704.705-84.563 84.563-.705-.704L75.1-9.463Zm-2.114-2.114.704.705-84.563 84.563-.705-.704 84.564-84.564Zm-2.115-2.114.705.704-84.564 84.564-.704-.705L70.872-13.69Zm-2.114-2.114.705.704L-15.1 69.463l-.704-.705 84.563-84.563Zm-2.114-2.114.705.704-84.564 84.564-.704-.705 84.563-84.563Zm-2.114-2.115.705.705-84.564 84.564-.705-.705L64.53-20.034Zm-2.114-2.114.705.705-84.564 84.564-.705-.705 84.564-84.564Zm-2.114-2.114.705.705-84.564 84.564-.705-.705 84.564-84.564Zm-2.114-2.114.705.705-84.564 84.564-.705-.705 84.564-84.564Zm-2.114-2.114.705.705-84.564 84.564-.705-.705L56.074-28.49Zm-2.114-2.114.704.705-84.563 84.563-.705-.704L53.96-30.604Zm-2.114-2.114.704.705-84.563 84.563-.705-.704 84.564-84.564Zm-2.114-2.114.704.704-84.564 84.564-.704-.704 84.564-84.564Zm-2.115-2.114.705.704-84.564 84.564-.704-.705 84.563-84.563Zm-2.114-2.114.705.704-84.564 84.564-.704-.705L45.503-39.06Zm-2.114-2.114.705.704-84.564 84.564-.704-.705 84.563-84.563Zm-2.114-2.115.705.705-84.564 84.564-.705-.705 84.564-84.564Zm-2.114-2.114.705.705-84.564 84.564-.705-.705 84.564-84.564Zm-2.114-2.114.705.705-84.564 84.564-.705-.705 84.564-84.564Zm-2.114-2.114.705.705-84.564 84.564-.705-.705 84.564-84.564Zm-2.114-2.114.704.705-84.563 84.563-.705-.704 84.564-84.564Zm-2.114-2.114.704.705-84.563 84.563-.705-.704L30.705-53.86Zm-2.114-2.114.704.705-84.563 84.563-.705-.704L28.59-55.973Zm-2.114-2.114.704.704-84.564 84.564-.704-.704 84.564-84.564Zm-2.115-2.114.705.704-84.564 84.564-.704-.705L24.362-60.2Zm-2.114-2.114.705.704-84.564 84.564-.704-.705 84.563-84.563Zm-2.114-2.115.705.705-84.564 84.564-.705-.705L20.134-64.43Zm-2.114-2.114.705.705-84.564 84.564-.705-.705L18.02-66.544Zm-2.114-2.114.705.705-84.564 84.564-.705-.705 84.564-84.564Zm-2.114-2.114.705.705-84.564 84.564-.705-.705 84.564-84.564Zm-2.114-2.114.705.705-84.564 84.564-.705-.705 84.564-84.564ZM9.564-75l.704.705-84.563 84.563-.705-.704L9.564-75Z"
        fill="#FFF"
        mask="url(#f)"
      />
    </g>
    <g opacity=".12" transform="translate(885 213)">
      <mask id="h" fill="#fff">
        <use xlink:href="#g"/>
      </mask>
      <path
        d="m134.295 49.732.705.704L50.436 135l-.704-.705 84.563-84.563Zm-2.114-2.115.705.705-84.564 84.564-.705-.705 84.564-84.564Zm-2.114-2.114.705.705-84.564 84.564-.705-.705 84.564-84.564Zm-2.114-2.114.705.705-84.564 84.564-.705-.705 84.564-84.564Zm-2.114-2.114.705.705-84.564 84.564-.705-.705 84.564-84.564Zm-2.114-2.114.705.705-84.564 84.564-.705-.705 84.564-84.564Zm-2.114-2.114.704.705-84.563 84.563-.705-.704 84.564-84.564Zm-2.114-2.114.704.705L35.638 120.2l-.705-.704 84.564-84.564Zm-2.114-2.114.704.704-84.564 84.564-.704-.704 84.564-84.564Zm-2.115-2.114.705.704-84.564 84.564-.704-.705 84.563-84.563Zm-2.114-2.114.705.704-84.564 84.564-.704-.705 84.563-84.563Zm-2.114-2.114.705.704-84.564 84.564-.704-.705 84.563-84.563Zm-2.114-2.115.705.705-84.564 84.564-.705-.705 84.564-84.564Zm-2.114-2.114.705.705-84.564 84.564-.705-.705 84.564-84.564Zm-2.114-2.114.705.705-84.564 84.564-.705-.705 84.564-84.564Zm-2.114-2.114.705.705-84.564 84.564-.705-.705 84.564-84.564Zm-2.114-2.114.704.705-84.563 84.563-.705-.704 84.564-84.564Zm-2.114-2.114.704.705L14.497 99.06l-.705-.704 84.564-84.564Zm-2.114-2.114.704.705-84.563 84.563-.705-.704 84.564-84.564Zm-2.114-2.114.704.704-84.564 84.564-.704-.704L94.128 9.564ZM92.013 7.45l.705.704L8.154 92.718l-.704-.705L92.013 7.45ZM89.9 5.336l.705.704L6.04 90.604l-.704-.705L89.899 5.336ZM87.785 3.22l.705.705L3.926 88.49l-.705-.705L87.785 3.221Zm-2.114-2.114.705.705L1.812 86.376l-.705-.705L85.671 1.107Zm-2.114-2.114.705.705L-.302 84.262l-.705-.705L83.557-1.007ZM81.443-3.12l.705.705-84.564 84.564-.705-.705L81.443-3.121Zm-2.114-2.114.705.705L-4.53 80.034l-.705-.705L79.33-5.235Zm-2.114-2.114.704.705-84.563 84.563-.705-.704L77.215-7.35ZM75.1-9.463l.704.705-84.563 84.563-.705-.704L75.1-9.463Zm-2.114-2.114.704.705-84.563 84.563-.705-.704 84.564-84.564Zm-2.115-2.114.705.704-84.564 84.564-.704-.705L70.872-13.69Zm-2.114-2.114.705.704L-15.1 69.463l-.704-.705 84.563-84.563Zm-2.114-2.114.705.704-84.564 84.564-.704-.705 84.563-84.563Zm-2.114-2.115.705.705-84.564 84.564-.705-.705L64.53-20.034Zm-2.114-2.114.705.705-84.564 84.564-.705-.705 84.564-84.564Zm-2.114-2.114.705.705-84.564 84.564-.705-.705 84.564-84.564Zm-2.114-2.114.705.705-84.564 84.564-.705-.705 84.564-84.564Zm-2.114-2.114.705.705-84.564 84.564-.705-.705L56.074-28.49Zm-2.114-2.114.704.705-84.563 84.563-.705-.704L53.96-30.604Zm-2.114-2.114.704.705-84.563 84.563-.705-.704 84.564-84.564Zm-2.114-2.114.704.704-84.564 84.564-.704-.704 84.564-84.564Zm-2.115-2.114.705.704-84.564 84.564-.704-.705 84.563-84.563Zm-2.114-2.114.705.704-84.564 84.564-.704-.705L45.503-39.06Zm-2.114-2.114.705.704-84.564 84.564-.704-.705 84.563-84.563Zm-2.114-2.115.705.705-84.564 84.564-.705-.705 84.564-84.564Zm-2.114-2.114.705.705-84.564 84.564-.705-.705 84.564-84.564Zm-2.114-2.114.705.705-84.564 84.564-.705-.705 84.564-84.564Zm-2.114-2.114.705.705-84.564 84.564-.705-.705 84.564-84.564Zm-2.114-2.114.704.705-84.563 84.563-.705-.704 84.564-84.564Zm-2.114-2.114.704.705-84.563 84.563-.705-.704L30.705-53.86Zm-2.114-2.114.704.705-84.563 84.563-.705-.704L28.59-55.973Zm-2.114-2.114.704.704-84.564 84.564-.704-.704 84.564-84.564Zm-2.115-2.114.705.704-84.564 84.564-.704-.705L24.362-60.2Zm-2.114-2.114.705.704-84.564 84.564-.704-.705 84.563-84.563Zm-2.114-2.115.705.705-84.564 84.564-.705-.705L20.134-64.43Zm-2.114-2.114.705.705-84.564 84.564-.705-.705L18.02-66.544Zm-2.114-2.114.705.705-84.564 84.564-.705-.705 84.564-84.564Zm-2.114-2.114.705.705-84.564 84.564-.705-.705 84.564-84.564Zm-2.114-2.114.705.705-84.564 84.564-.705-.705 84.564-84.564ZM9.564-75l.704.705-84.563 84.563-.705-.704L9.564-75Z"
        fill="#FFF"
        mask="url(#h)"
      />
    </g>
    <g opacity=".12" transform="translate(458 152)">
      <mask id="j" fill="#fff">
        <use xlink:href="#i"/>
      </mask>
      <path
        d="m134.295 49.732.705.704L50.436 135l-.704-.705 84.563-84.563Zm-2.114-2.115.705.705-84.564 84.564-.705-.705 84.564-84.564Zm-2.114-2.114.705.705-84.564 84.564-.705-.705 84.564-84.564Zm-2.114-2.114.705.705-84.564 84.564-.705-.705 84.564-84.564Zm-2.114-2.114.705.705-84.564 84.564-.705-.705 84.564-84.564Zm-2.114-2.114.705.705-84.564 84.564-.705-.705 84.564-84.564Zm-2.114-2.114.704.705-84.563 84.563-.705-.704 84.564-84.564Zm-2.114-2.114.704.705L35.638 120.2l-.705-.704 84.564-84.564Zm-2.114-2.114.704.704-84.564 84.564-.704-.704 84.564-84.564Zm-2.115-2.114.705.704-84.564 84.564-.704-.705 84.563-84.563Zm-2.114-2.114.705.704-84.564 84.564-.704-.705 84.563-84.563Zm-2.114-2.114.705.704-84.564 84.564-.704-.705 84.563-84.563Zm-2.114-2.115.705.705-84.564 84.564-.705-.705 84.564-84.564Zm-2.114-2.114.705.705-84.564 84.564-.705-.705 84.564-84.564Zm-2.114-2.114.705.705-84.564 84.564-.705-.705 84.564-84.564Zm-2.114-2.114.705.705-84.564 84.564-.705-.705 84.564-84.564Zm-2.114-2.114.704.705-84.563 84.563-.705-.704 84.564-84.564Zm-2.114-2.114.704.705L14.497 99.06l-.705-.704 84.564-84.564Zm-2.114-2.114.704.705-84.563 84.563-.705-.704 84.564-84.564Zm-2.114-2.114.704.704-84.564 84.564-.704-.704L94.128 9.564ZM92.013 7.45l.705.704L8.154 92.718l-.704-.705L92.013 7.45ZM89.9 5.336l.705.704L6.04 90.604l-.704-.705L89.899 5.336ZM87.785 3.22l.705.705L3.926 88.49l-.705-.705L87.785 3.221Zm-2.114-2.114.705.705L1.812 86.376l-.705-.705L85.671 1.107Zm-2.114-2.114.705.705L-.302 84.262l-.705-.705L83.557-1.007ZM81.443-3.12l.705.705-84.564 84.564-.705-.705L81.443-3.121Zm-2.114-2.114.705.705L-4.53 80.034l-.705-.705L79.33-5.235Zm-2.114-2.114.704.705-84.563 84.563-.705-.704L77.215-7.35ZM75.1-9.463l.704.705-84.563 84.563-.705-.704L75.1-9.463Zm-2.114-2.114.704.705-84.563 84.563-.705-.704 84.564-84.564Zm-2.115-2.114.705.704-84.564 84.564-.704-.705L70.872-13.69Zm-2.114-2.114.705.704L-15.1 69.463l-.704-.705 84.563-84.563Zm-2.114-2.114.705.704-84.564 84.564-.704-.705 84.563-84.563Zm-2.114-2.115.705.705-84.564 84.564-.705-.705L64.53-20.034Zm-2.114-2.114.705.705-84.564 84.564-.705-.705 84.564-84.564Zm-2.114-2.114.705.705-84.564 84.564-.705-.705 84.564-84.564Zm-2.114-2.114.705.705-84.564 84.564-.705-.705 84.564-84.564Zm-2.114-2.114.705.705-84.564 84.564-.705-.705L56.074-28.49Zm-2.114-2.114.704.705-84.563 84.563-.705-.704L53.96-30.604Zm-2.114-2.114.704.705-84.563 84.563-.705-.704 84.564-84.564Zm-2.114-2.114.704.704-84.564 84.564-.704-.704 84.564-84.564Zm-2.115-2.114.705.704-84.564 84.564-.704-.705 84.563-84.563Zm-2.114-2.114.705.704-84.564 84.564-.704-.705L45.503-39.06Zm-2.114-2.114.705.704-84.564 84.564-.704-.705 84.563-84.563Zm-2.114-2.115.705.705-84.564 84.564-.705-.705 84.564-84.564Zm-2.114-2.114.705.705-84.564 84.564-.705-.705 84.564-84.564Zm-2.114-2.114.705.705-84.564 84.564-.705-.705 84.564-84.564Zm-2.114-2.114.705.705-84.564 84.564-.705-.705 84.564-84.564Zm-2.114-2.114.704.705-84.563 84.563-.705-.704 84.564-84.564Zm-2.114-2.114.704.705-84.563 84.563-.705-.704L30.705-53.86Zm-2.114-2.114.704.705-84.563 84.563-.705-.704L28.59-55.973Zm-2.114-2.114.704.704-84.564 84.564-.704-.704 84.564-84.564Zm-2.115-2.114.705.704-84.564 84.564-.704-.705L24.362-60.2Zm-2.114-2.114.705.704-84.564 84.564-.704-.705 84.563-84.563Zm-2.114-2.115.705.705-84.564 84.564-.705-.705L20.134-64.43Zm-2.114-2.114.705.705-84.564 84.564-.705-.705L18.02-66.544Zm-2.114-2.114.705.705-84.564 84.564-.705-.705 84.564-84.564Zm-2.114-2.114.705.705-84.564 84.564-.705-.705 84.564-84.564Zm-2.114-2.114.705.705-84.564 84.564-.705-.705 84.564-84.564ZM9.564-75l.704.705-84.563 84.563-.705-.704L9.564-75Z"
        fill="#FFF"
        mask="url(#j)"
      />
    </g>
    <g opacity=".12" transform="translate(580 91)">
      <mask id="l" fill="#fff">
        <use xlink:href="#k"/>
      </mask>
      <path
        d="m134.295 49.732.705.704L50.436 135l-.704-.705 84.563-84.563Zm-2.114-2.115.705.705-84.564 84.564-.705-.705 84.564-84.564Zm-2.114-2.114.705.705-84.564 84.564-.705-.705 84.564-84.564Zm-2.114-2.114.705.705-84.564 84.564-.705-.705 84.564-84.564Zm-2.114-2.114.705.705-84.564 84.564-.705-.705 84.564-84.564Zm-2.114-2.114.705.705-84.564 84.564-.705-.705 84.564-84.564Zm-2.114-2.114.704.705-84.563 84.563-.705-.704 84.564-84.564Zm-2.114-2.114.704.705L35.638 120.2l-.705-.704 84.564-84.564Zm-2.114-2.114.704.704-84.564 84.564-.704-.704 84.564-84.564Zm-2.115-2.114.705.704-84.564 84.564-.704-.705 84.563-84.563Zm-2.114-2.114.705.704-84.564 84.564-.704-.705 84.563-84.563Zm-2.114-2.114.705.704-84.564 84.564-.704-.705 84.563-84.563Zm-2.114-2.115.705.705-84.564 84.564-.705-.705 84.564-84.564Zm-2.114-2.114.705.705-84.564 84.564-.705-.705 84.564-84.564Zm-2.114-2.114.705.705-84.564 84.564-.705-.705 84.564-84.564Zm-2.114-2.114.705.705-84.564 84.564-.705-.705 84.564-84.564Zm-2.114-2.114.704.705-84.563 84.563-.705-.704 84.564-84.564Zm-2.114-2.114.704.705L14.497 99.06l-.705-.704 84.564-84.564Zm-2.114-2.114.704.705-84.563 84.563-.705-.704 84.564-84.564Zm-2.114-2.114.704.704-84.564 84.564-.704-.704L94.128 9.564ZM92.013 7.45l.705.704L8.154 92.718l-.704-.705L92.013 7.45ZM89.9 5.336l.705.704L6.04 90.604l-.704-.705L89.899 5.336ZM87.785 3.22l.705.705L3.926 88.49l-.705-.705L87.785 3.221Zm-2.114-2.114.705.705L1.812 86.376l-.705-.705L85.671 1.107Zm-2.114-2.114.705.705L-.302 84.262l-.705-.705L83.557-1.007ZM81.443-3.12l.705.705-84.564 84.564-.705-.705L81.443-3.121Zm-2.114-2.114.705.705L-4.53 80.034l-.705-.705L79.33-5.235Zm-2.114-2.114.704.705-84.563 84.563-.705-.704L77.215-7.35ZM75.1-9.463l.704.705-84.563 84.563-.705-.704L75.1-9.463Zm-2.114-2.114.704.705-84.563 84.563-.705-.704 84.564-84.564Zm-2.115-2.114.705.704-84.564 84.564-.704-.705L70.872-13.69Zm-2.114-2.114.705.704L-15.1 69.463l-.704-.705 84.563-84.563Zm-2.114-2.114.705.704-84.564 84.564-.704-.705 84.563-84.563Zm-2.114-2.115.705.705-84.564 84.564-.705-.705L64.53-20.034Zm-2.114-2.114.705.705-84.564 84.564-.705-.705 84.564-84.564Zm-2.114-2.114.705.705-84.564 84.564-.705-.705 84.564-84.564Zm-2.114-2.114.705.705-84.564 84.564-.705-.705 84.564-84.564Zm-2.114-2.114.705.705-84.564 84.564-.705-.705L56.074-28.49Zm-2.114-2.114.704.705-84.563 84.563-.705-.704L53.96-30.604Zm-2.114-2.114.704.705-84.563 84.563-.705-.704 84.564-84.564Zm-2.114-2.114.704.704-84.564 84.564-.704-.704 84.564-84.564Zm-2.115-2.114.705.704-84.564 84.564-.704-.705 84.563-84.563Zm-2.114-2.114.705.704-84.564 84.564-.704-.705L45.503-39.06Zm-2.114-2.114.705.704-84.564 84.564-.704-.705 84.563-84.563Zm-2.114-2.115.705.705-84.564 84.564-.705-.705 84.564-84.564Zm-2.114-2.114.705.705-84.564 84.564-.705-.705 84.564-84.564Zm-2.114-2.114.705.705-84.564 84.564-.705-.705 84.564-84.564Zm-2.114-2.114.705.705-84.564 84.564-.705-.705 84.564-84.564Zm-2.114-2.114.704.705-84.563 84.563-.705-.704 84.564-84.564Zm-2.114-2.114.704.705-84.563 84.563-.705-.704L30.705-53.86Zm-2.114-2.114.704.705-84.563 84.563-.705-.704L28.59-55.973Zm-2.114-2.114.704.704-84.564 84.564-.704-.704 84.564-84.564Zm-2.115-2.114.705.704-84.564 84.564-.704-.705L24.362-60.2Zm-2.114-2.114.705.704-84.564 84.564-.704-.705 84.563-84.563Zm-2.114-2.115.705.705-84.564 84.564-.705-.705L20.134-64.43Zm-2.114-2.114.705.705-84.564 84.564-.705-.705L18.02-66.544Zm-2.114-2.114.705.705-84.564 84.564-.705-.705 84.564-84.564Zm-2.114-2.114.705.705-84.564 84.564-.705-.705 84.564-84.564Zm-2.114-2.114.705.705-84.564 84.564-.705-.705 84.564-84.564ZM9.564-75l.704.705-84.563 84.563-.705-.704L9.564-75Z"
        fill="#FFF"
        mask="url(#l)"
      />
    </g>
  </g>
</svg>
