<svg xmlns="http://www.w3.org/2000/svg" viewBox="0 0 330 220">
  <g fill="none" fill-rule="evenodd">
    <g opacity=".1">
      <path fill="#24EDFC"
            d="M115 17h17v17h-17zM16 17h17v17H16zM16 0h17v17H16zM115 34h17v17h-17zM148 51h17v17h-17zM148 85h17v17h-17zM132 102h17v17h-17z"/>
      <path fill="#24EDFC" d="M132 118h17v17h-17zM148 203h17v17h-17z"/>
      <path fill="#FDEE05" d="M132 135h17v17h-17zM148 169h17v17h-17z"/>
      <path fill="#24EDFC" d="M132 169h17v17h-17zM98 186h17v17H98zM98 203h17v17H98z"/>
      <path fill="#EA4D8C"
            d="M132 34h17v17h-17zM132 51h17v17h-17zM115 68h17v17h-17zM132 85h17v17h-17zM98 85h17v17H98z"/>
      <path fill="#FFF"
            d="M33 17h17v17H33zM0 0h17v17H0zM50 51h17v17H50zM66 68h17v17H66zM66 85h17v17H66zM0 68h17v17H0zM0 85h17v17H0zM16 102h17v17H16zM33 102h17v17H33zM66 102h17v17H66z"/>
      <path fill="#FFF" d="M66 118h17v17H66zM115 118h17v17h-17zM115 135h17v17h-17z"/>
      <path fill="#FFF"
            d="M50 118h17v17H50zM50 135h17v17H50zM33 135h17v17H33zM50 186h17v17H50zM115 203h17v17h-17zM0 118h17v17H0zM33 152h17v17H33zM0 203h17v17H0zM50 203h17v17H50zM82 203h17v17H82zM148 152h17v17h-17zM50 17h17v17H50z"/>
      <path fill="#121212" d="M50 0h17v17H50zM0 34h17v17H0zM0 51h17v17H0z"/>
      <path fill="#FF7939" d="M66 17h17v17H66zM66 34h17v17H66zM16 51h17v17H16zM16 152h17v17H16zM66 152h17v17H66z"/>
      <path fill="#FF7939" d="M82 152h17v17H82zM16 169h17v17H16zM33 203h17v17H33zM148 186h17v17h-17z"/>
      <path fill="#844AE0" d="M16 68h17v17H16zM115 0h17v17h-17zM132 0h17v17h-17zM148 34h17v17h-17z"/>
      <path fill="#FDEE05" d="M50 34h17v17H50zM82 51h17v17H82zM82 68h17v17H82zM148 0h17v17h-17zM148 17h17v17h-17z"/>
      <path fill="#FDEE05"
            d="M98 51h17v17H98zM33 34h17v17H33zM16 85h17v17H16zM16 118h17v17H16zM33 169h17v17H33zM50 152h17v17H50zM66 186h17v17H66zM115 169h17v17h-17zM33 186h17v17H33zM66 203h17v17H66zM33 118h17v17H33zM66 51h17v17H66z"/>
      <path fill="#FF7939" d="M82 34h17v17H82zM33 51h17v17H33zM0 17h17v17H0z"/>
      <path fill="#844AE0" d="M33 68h17v17H33zM82 85h17v17H82zM82 102h17v17H82z"/>
      <path fill="#844AE0" d="M98 118h17v17H98zM82 135h17v17H82zM0 135h17v17H0zM0 186h17v17H0zM16 203h17v17H16z"/>
      <path fill="#844AE0" d="M66 135h17v17H66zM66 169h17v17H66zM98 68h17v17H98zM132 68h17v17h-17zM148 102h17v17h-17z"/>
      <path fill="#844AE0" d="M148 118h17v17h-17z"/>
      <path fill="#121212" d="M66 0h17v17H66z"/>
      <path fill="#FFF" d="M82 17h17v17H82z"/>
      <path fill="#EA4D8C"
            d="M82 0h17v17H82zM16 34h17v17H16zM33 0h17v17H33zM50 68h17v17H50zM82 118h17v17H82zM98 152h17v17H98zM82 169h17v17H82zM132 152h17v17h-17zM132 203h17v17h-17zM132 186h17v17h-17zM0 169h17v17H0zM0 152h17v17H0z"/>
      <path fill="#121212" d="M98 17h17v17H98zM132 17h17v17h-17zM50 85h17v17H50zM132 102v17h-17v-17z"/>
      <path fill="#24EDFC" d="M115 135v17H98v-17z"/>
      <path fill="#121212"
            d="M132 152v17h-17v-17zM132 186v17h-17v-17zM115 169v17H98v-17zM99 186v17H82v-17zM33 186v17H16v-17zM165 135v17h-17v-17zM67 169v17H50v-17zM0 102h17v17H0zM16 135h17v17H16zM33 85h17v17H33zM132 85v17h-17V85zM98 34h17v17H98zM50 102h17v17H50zM115 102v17H98v-17zM115 51h17v17h-17zM148 68h17v17h-17z"/>
      <path fill="#EA4D8C" d="M98 0h17v17H98z"/>
    </g>
    <g opacity=".1">
      <path fill="#24EDFC"
            d="M280 17h17v17h-17zM181 17h17v17h-17zM181 0h17v17h-17zM280 34h17v17h-17zM313 51h17v17h-17zM313 85h17v17h-17zM297 102h17v17h-17z"/>
      <path fill="#24EDFC" d="M297 118h17v17h-17zM313 203h17v17h-17z"/>
      <path fill="#FDEE05" d="M297 135h17v17h-17zM313 169h17v17h-17z"/>
      <path fill="#24EDFC" d="M297 169h17v17h-17zM263 186h17v17h-17zM263 203h17v17h-17z"/>
      <path fill="#EA4D8C"
            d="M297 34h17v17h-17zM297 51h17v17h-17zM280 68h17v17h-17zM297 85h17v17h-17zM263 85h17v17h-17z"/>
      <path fill="#FFF"
            d="M198 17h17v17h-17zM165 0h17v17h-17zM215 51h17v17h-17zM231 68h17v17h-17zM231 85h17v17h-17zM165 68h17v17h-17zM165 85h17v17h-17zM181 102h17v17h-17zM198 102h17v17h-17zM231 102h17v17h-17z"/>
      <path fill="#FFF" d="M231 118h17v17h-17zM280 118h17v17h-17zM280 135h17v17h-17z"/>
      <path fill="#FFF"
            d="M215 118h17v17h-17zM215 135h17v17h-17zM198 135h17v17h-17zM215 186h17v17h-17zM280 203h17v17h-17zM165 118h17v17h-17zM198 152h17v17h-17zM165 203h17v17h-17zM215 203h17v17h-17zM247 203h17v17h-17zM313 152h17v17h-17zM215 17h17v17h-17z"/>
      <path fill="#121212" d="M215 0h17v17h-17zM165 34h17v17h-17zM165 51h17v17h-17z"/>
      <path fill="#FF7939"
            d="M231 17h17v17h-17zM231 34h17v17h-17zM181 51h17v17h-17zM181 152h17v17h-17zM231 152h17v17h-17z"/>
      <path fill="#FF7939" d="M247 152h17v17h-17zM181 169h17v17h-17zM198 203h17v17h-17zM313 186h17v17h-17z"/>
      <path fill="#844AE0" d="M181 68h17v17h-17zM280 0h17v17h-17zM297 0h17v17h-17zM313 34h17v17h-17z"/>
      <path fill="#FDEE05"
            d="M215 34h17v17h-17zM247 51h17v17h-17zM247 68h17v17h-17zM313 0h17v17h-17zM313 17h17v17h-17z"/>
      <path fill="#FDEE05"
            d="M263 51h17v17h-17zM198 34h17v17h-17zM181 85h17v17h-17zM181 118h17v17h-17zM198 169h17v17h-17zM215 152h17v17h-17zM231 186h17v17h-17zM280 169h17v17h-17zM198 186h17v17h-17zM231 203h17v17h-17zM198 118h17v17h-17zM231 51h17v17h-17z"/>
      <path fill="#FF7939" d="M247 34h17v17h-17zM198 51h17v17h-17zM165 17h17v17h-17z"/>
      <path fill="#844AE0" d="M198 68h17v17h-17zM247 85h17v17h-17zM247 102h17v17h-17z"/>
      <path fill="#844AE0"
            d="M263 118h17v17h-17zM247 135h17v17h-17zM165 135h17v17h-17zM165 186h17v17h-17zM181 203h17v17h-17z"/>
      <path fill="#844AE0"
            d="M231 135h17v17h-17zM231 169h17v17h-17zM263 68h17v17h-17zM297 68h17v17h-17zM313 102h17v17h-17z"/>
      <path fill="#844AE0" d="M313 118h17v17h-17z"/>
      <path fill="#121212" d="M231 0h17v17h-17z"/>
      <path fill="#FFF" d="M247 17h17v17h-17z"/>
      <path fill="#EA4D8C"
            d="M247 0h17v17h-17zM181 34h17v17h-17zM198 0h17v17h-17zM215 68h17v17h-17zM247 118h17v17h-17zM263 152h17v17h-17zM247 169h17v17h-17zM297 152h17v17h-17zM297 203h17v17h-17zM297 186h17v17h-17zM165 169h17v17h-17zM165 152h17v17h-17z"/>
      <path fill="#121212" d="M263 17h17v17h-17zM297 17h17v17h-17zM215 85h17v17h-17zM297 102v17h-17v-17z"/>
      <path fill="#24EDFC" d="M280 135v17h-17v-17z"/>
      <path fill="#121212"
            d="M297 152v17h-17v-17zM297 186v17h-17v-17zM280 169v17h-17v-17zM264 186v17h-17v-17zM198 186v17h-17v-17zM330 135v17h-17v-17zM232 169v17h-17v-17zM165 102h17v17h-17zM181 135h17v17h-17zM198 85h17v17h-17zM297 85v17h-17V85zM263 34h17v17h-17zM215 102h17v17h-17zM280 102v17h-17v-17zM280 51h17v17h-17zM313 68h17v17h-17z"/>
      <path fill="#EA4D8C" d="M263 0h17v17h-17z"/>
    </g>
    <path fill="#000" style="mix-blend-mode:color" d="M0 0h330v220H0z"/>
  </g>
</svg>
