<svg xmlns="http://www.w3.org/2000/svg" viewBox="0 0 330 220">
  <g fill="none" fill-rule="evenodd">
    <g opacity=".1">
      <path fill="#24EDFC"
            d="M50 203H33v-17h17zM149 203h-17v-17h17zM149 220h-17v-17h17zM50 186H33v-17h17zM17 169H0v-17h17zM17 135H0v-17h17zM33 118H16v-17h17z"/>
      <path fill="#24EDFC" d="M33 102H16V85h17zM17 17H0V0h17z"/>
      <path fill="#FDEE05" d="M33 85H16V68h17zM17 51H0V34h17z"/>
      <path fill="#24EDFC" d="M33 51H16V34h17zM67 34H50V17h17zM67 17H50V0h17z"/>
      <path fill="#EA4D8C"
            d="M33 186H16v-17h17zM33 169H16v-17h17zM50 152H33v-17h17zM33 135H16v-17h17zM67 135H50v-17h17z"/>
      <path fill="#FFF"
            d="M132 203h-17v-17h17zM165 220h-17v-17h17zM115 169H98v-17h17zM99 152H82v-17h17zM99 135H82v-17h17zM165 152h-17v-17h17zM165 135h-17v-17h17zM149 118h-17v-17h17zM132 118h-17v-17h17zM99 118H82v-17h17z"/>
      <path fill="#FFF" d="M99 102H82V85h17zM50 102H33V85h17zM50 85H33V68h17z"/>
      <path fill="#FFF"
            d="M115 102H98V85h17zM115 85H98V68h17zM132 85h-17V68h17zM115 34H98V17h17zM50 17H33V0h17zM165 102h-17V85h17zM132 68h-17V51h17zM165 17h-17V0h17zM115 17H98V0h17zM83 17H66V0h17zM17 68H0V51h17zM115 203H98v-17h17z"/>
      <path fill="#121212" d="M115 220H98v-17h17zM165 186h-17v-17h17zM165 169h-17v-17h17z"/>
      <path fill="#FF7939"
            d="M99 203H82v-17h17zM99 186H82v-17h17zM149 169h-17v-17h17zM149 68h-17V51h17zM99 68H82V51h17z"/>
      <path fill="#FF7939" d="M83 68H66V51h17zM149 51h-17V34h17zM132 17h-17V0h17zM17 34H0V17h17z"/>
      <path fill="#844AE0" d="M149 152h-17v-17h17zM50 220H33v-17h17zM33 220H16v-17h17zM17 186H0v-17h17z"/>
      <path fill="#FDEE05"
            d="M115 186H98v-17h17zM83 169H66v-17h17zM83 152H66v-17h17zM17 220H0v-17h17zM17 203H0v-17h17z"/>
      <path fill="#FDEE05"
            d="M67 169H50v-17h17zM132 186h-17v-17h17zM149 135h-17v-17h17zM149 102h-17V85h17zM132 51h-17V34h17zM115 68H98V51h17zM99 34H82V17h17zM50 51H33V34h17zM132 34h-17V17h17zM99 17H82V0h17zM132 102h-17V85h17zM99 169H82v-17h17z"/>
      <path fill="#FF7939" d="M83 186H66v-17h17zM132 169h-17v-17h17zM165 203h-17v-17h17z"/>
      <path fill="#844AE0" d="M132 152h-17v-17h17zM83 135H66v-17h17zM83 118H66v-17h17z"/>
      <path fill="#844AE0" d="M67 102H50V85h17zM83 85H66V68h17zM165 85h-17V68h17zM165 34h-17V17h17zM149 17h-17V0h17z"/>
      <path fill="#844AE0" d="M99 85H82V68h17zM99 51H82V34h17zM67 152H50v-17h17zM33 152H16v-17h17zM17 118H0v-17h17z"/>
      <path fill="#844AE0" d="M17 102H0V85h17z"/>
      <path fill="#121212" d="M99 220H82v-17h17z"/>
      <path fill="#FFF" d="M83 203H66v-17h17z"/>
      <path fill="#EA4D8C"
            d="M83 220H66v-17h17zM149 186h-17v-17h17zM132 220h-17v-17h17zM115 152H98v-17h17zM83 102H66V85h17zM67 68H50V51h17zM83 51H66V34h17zM33 68H16V51h17zM33 17H16V0h17zM33 34H16V17h17zM165 51h-17V34h17zM165 68h-17V51h17z"/>
      <path fill="#121212" d="M67 203H50v-17h17zM33 203H16v-17h17zM115 135H98v-17h17zM33 118v-17h17v17z"/>
      <path fill="#24EDFC" d="M50 85V68h17v17z"/>
      <path fill="#121212"
            d="M33 68V51h17v17zM33 34V17h17v17zM50 51V34h17v17zM66 34V17h17v17zM132 34V17h17v17zM0 85V68h17v17zM98 51V34h17v17zM165 118h-17v-17h17zM149 85h-17V68h17zM132 135h-17v-17h17zM33 135v-17h17v17zM67 186H50v-17h17zM115 118H98v-17h17zM50 118v-17h17v17zM50 169H33v-17h17zM17 152H0v-17h17z"/>
      <path fill="#EA4D8C" d="M67 220H50v-17h17z"/>
    </g>
    <g opacity=".1">
      <path fill="#24EDFC"
            d="M215 203h-17v-17h17zM314 203h-17v-17h17zM314 220h-17v-17h17zM215 186h-17v-17h17zM182 169h-17v-17h17zM182 135h-17v-17h17zM198 118h-17v-17h17z"/>
      <path fill="#24EDFC" d="M198 102h-17V85h17zM182 17h-17V0h17z"/>
      <path fill="#FDEE05" d="M198 85h-17V68h17zM182 51h-17V34h17z"/>
      <path fill="#24EDFC" d="M198 51h-17V34h17zM232 34h-17V17h17zM232 17h-17V0h17z"/>
      <path fill="#EA4D8C"
            d="M198 186h-17v-17h17zM198 169h-17v-17h17zM215 152h-17v-17h17zM198 135h-17v-17h17zM232 135h-17v-17h17z"/>
      <path fill="#FFF"
            d="M297 203h-17v-17h17zM330 220h-17v-17h17zM280 169h-17v-17h17zM264 152h-17v-17h17zM264 135h-17v-17h17zM330 152h-17v-17h17zM330 135h-17v-17h17zM314 118h-17v-17h17zM297 118h-17v-17h17zM264 118h-17v-17h17z"/>
      <path fill="#FFF" d="M264 102h-17V85h17zM215 102h-17V85h17zM215 85h-17V68h17z"/>
      <path fill="#FFF"
            d="M280 102h-17V85h17zM280 85h-17V68h17zM297 85h-17V68h17zM280 34h-17V17h17zM215 17h-17V0h17zM330 102h-17V85h17zM297 68h-17V51h17zM330 17h-17V0h17zM280 17h-17V0h17zM248 17h-17V0h17zM182 68h-17V51h17zM280 203h-17v-17h17z"/>
      <path fill="#121212" d="M280 220h-17v-17h17zM330 186h-17v-17h17zM330 169h-17v-17h17z"/>
      <path fill="#FF7939"
            d="M264 203h-17v-17h17zM264 186h-17v-17h17zM314 169h-17v-17h17zM314 68h-17V51h17zM264 68h-17V51h17z"/>
      <path fill="#FF7939" d="M248 68h-17V51h17zM314 51h-17V34h17zM297 17h-17V0h17zM182 34h-17V17h17z"/>
      <path fill="#844AE0" d="M314 152h-17v-17h17zM215 220h-17v-17h17zM198 220h-17v-17h17zM182 186h-17v-17h17z"/>
      <path fill="#FDEE05"
            d="M280 186h-17v-17h17zM248 169h-17v-17h17zM248 152h-17v-17h17zM182 220h-17v-17h17zM182 203h-17v-17h17z"/>
      <path fill="#FDEE05"
            d="M232 169h-17v-17h17zM297 186h-17v-17h17zM314 135h-17v-17h17zM314 102h-17V85h17zM297 51h-17V34h17zM280 68h-17V51h17zM264 34h-17V17h17zM215 51h-17V34h17zM297 34h-17V17h17zM264 17h-17V0h17zM297 102h-17V85h17zM264 169h-17v-17h17z"/>
      <path fill="#FF7939" d="M248 186h-17v-17h17zM297 169h-17v-17h17zM330 203h-17v-17h17z"/>
      <path fill="#844AE0" d="M297 152h-17v-17h17zM248 135h-17v-17h17zM248 118h-17v-17h17z"/>
      <path fill="#844AE0"
            d="M232 102h-17V85h17zM248 85h-17V68h17zM330 85h-17V68h17zM330 34h-17V17h17zM314 17h-17V0h17z"/>
      <path fill="#844AE0"
            d="M264 85h-17V68h17zM264 51h-17V34h17zM232 152h-17v-17h17zM198 152h-17v-17h17zM182 118h-17v-17h17z"/>
      <path fill="#844AE0" d="M182 102h-17V85h17z"/>
      <path fill="#121212" d="M264 220h-17v-17h17z"/>
      <path fill="#FFF" d="M248 203h-17v-17h17z"/>
      <path fill="#EA4D8C"
            d="M248 220h-17v-17h17zM314 186h-17v-17h17zM297 220h-17v-17h17zM280 152h-17v-17h17zM248 102h-17V85h17zM232 68h-17V51h17zM248 51h-17V34h17zM198 68h-17V51h17zM198 17h-17V0h17zM198 34h-17V17h17zM330 51h-17V34h17zM330 68h-17V51h17z"/>
      <path fill="#121212" d="M232 203h-17v-17h17zM198 203h-17v-17h17zM280 135h-17v-17h17zM198 118v-17h17v17z"/>
      <path fill="#24EDFC" d="M215 85V68h17v17z"/>
      <path fill="#121212"
            d="M198 68V51h17v17zM198 34V17h17v17zM215 51V34h17v17zM231 34V17h17v17zM297 34V17h17v17zM165 85V68h17v17zM263 51V34h17v17zM330 118h-17v-17h17zM314 85h-17V68h17zM297 135h-17v-17h17zM198 135v-17h17v17zM232 186h-17v-17h17zM280 118h-17v-17h17zM215 118v-17h17v17zM215 169h-17v-17h17zM182 152h-17v-17h17z"/>
      <path fill="#EA4D8C" d="M232 220h-17v-17h17z"/>
    </g>
    <path fill="#38FF6E" opacity=".4" style="mix-blend-mode:color" d="M0 0h330v220H0z"/>
  </g>
</svg>
