<svg xmlns="http://www.w3.org/2000/svg" viewBox="0 0 19 18" fill="currentColor"><path d="M10.615 13.91c.394-3.23 4.427-5.89 4.427-13.91H3.958c0 8.02 4.042 10.68 4.437 13.91h2.22zM4.743 7.9c.226.522.463 1.008.698 1.46C2.223 8.255.295 4.994 0 1.635h3.228c.028.395.063.782.11 1.15h-2.13c.339 1.637 1.227 3.87 3.535 5.114zm7.924 8.97V18H6.333v-1.13c1.537 0 1.876-1.172 2.036-2.143h2.269c.152.971.447 2.143 2.029 2.143zM19 1.636c-.295 3.359-2.223 6.62-5.441 7.722.235-.451.472-.936.698-1.458 2.308-1.245 3.196-3.478 3.534-5.115h-2.128c.047-.368.082-.754.11-1.15H19v.001z"/></svg>
