<svg fill="currentColor" xmlns="http://www.w3.org/2000/svg" viewBox="0 0 24 18"><path d="M17.622 0c-1.913 0-2.558 1.382-5.623 1.382C8.99 1.382 8.253 0 6.376 0 1.167 0 0 10.375 0 14.348 0 16.493.817 18 2.469 18c3.458 0 2.926-5 6.915-5h5.23c3.989 0 3.457 5 6.915 5C23.181 18 24 16.494 24 14.349 24 10.376 22.831 0 17.622 0zM7 10a3 3 0 110-6 3 3 0 010 6zm10-6a1 1 0 110 2 1 1 0 010-2zm-2 4a1 1 0 110-2 1 1 0 010 2zm2 2a1 1 0 110-2 1 1 0 010 2zm2-2a1 1 0 110-2 1 1 0 010 2zM8.75 7c0 .965-.785 1.75-1.75 1.75S5.25 7.965 5.25 7 6.035 5.25 7 5.25 8.75 6.035 8.75 7z"/></svg>
